<svg xmlns="http://www.w3.org/2000/svg" width="213.597" height="139.271" viewBox="0 0 213.597 139.271"><defs><style>.a{fill:none;}.a,.b,.c{stroke:#251c16;stroke-linecap:round;stroke-width:4px;}.b{fill:#85d3c4;}.c{fill:#fff;}</style></defs><g transform="translate(-1407.26 -1145.652) rotate(8)"><path class="a" d="M1618.848,978.451a20.676,20.676,0,0,1,6.567-1.359"/><circle class="a" cx="0.906" cy="0.906" r="0.906" transform="translate(1622.698 981.168)"/><path class="a" d="M1630.9,986.967s4.279.148,3.862,3.5-4.885,2.446-4.885,2.446h-.061a19.773,19.773,0,0,1-2.706,5.842s-5.208,9.511-18.342,9.511-19.121-6.3-21.513-12.455c-3.171-8.152-2.491-21.286-2.491-21.286s-.176-22.784,18.3-23.1c0,0,19.908-2.787,24.287,6.769S1631.519,980.178,1630.9,986.967Z"/><path class="a" d="M1618.505,1007.816s13.361,1.812,19.928,12.908,4.982,38.044,4.982,38.044-45.064.227-70.653-.226c0,0-3.624-34.195,7.7-41.894s10.643-8.152,18.116-9.285c0,0-1.359,11.323,8.6,11.776s10.417-10.87,10.644-13.134"/><path class="a" d="M1580.461,1016.648s8.152,4.3,8.832,9.964a191.26,191.26,0,0,1,.679,31.477"/><path class="a" d="M1635.036,1017.327s-8.6,2.718-8.6,14.493.226,26.948.226,26.948"/><path class="a" d="M1625.67,1000.179a7.753,7.753,0,0,1-5.011-3.071,4.332,4.332,0,0,1-.544-4.611"/><path class="a" d="M1590.385,1000.2s9.426-2.508,10-15.033c0,0-.756-4.714,4.982-4.982,0,0-4.529-.679-4.982,4.982s5.208,5.208,5.208,5.208"/><path class="a" d="M1604.513,979.331a8.1,8.1,0,0,0,6.02,1.463s-3.393-13.219,5.646-12.117,12.567,1.323,12.787-5.952"/><path class="b" d="M1622.86,969.18s16.217-.059,10.224-22.724c0,0-.167,5.93-7.158,5.281l-13.581-.538"/><path class="a" d="M1705.635,961.824s-5.04.382-4.637-4.395,4.435-4.2,4.435-4.2"/><path class="a" d="M1761.023,994.988c5.688-9.1,1.82-18.657-.683-22.525a29.919,29.919,0,0,1-4.095-15.7c.228-5.233-.228-13.424-.228-13.424-5.915-23.663-27.985-22.07-27.985-22.07-27.986,0-26.621,29.806-26.621,29.806s.683,14.789-5.005,22.98-2.276,18.885,0,21.615"/><path class="a" d="M1708.3,951.073a20.677,20.677,0,0,1,6.567-1.359"/><path class="a" d="M1730.181,949.641a20.679,20.679,0,0,1,6.59,1.246"/><path class="a" d="M1720.042,961.2s-.453,3.85,2.717,3.623,3.4-3.623,3.4-3.623"/><path class="a" d="M1717.684,969.316s4.135,4.041,10.829,0"/><circle class="a" cx="0.906" cy="0.906" r="0.906" transform="translate(1711.889 953.272)"/><circle class="a" cx="1.132" cy="1.132" r="1.132" transform="translate(1731.817 953.272)"/><path class="a" d="M1747.556,962.4a26.694,26.694,0,0,1-3.99,9.9s-6.642,9.259-15.805,9.349c-10.132.1-17.921-6.3-20.164-12.455-2.971-8.152-2.3-17.479-2.3-17.479.6-3.47,5.377-6.412,5.377-6.412,8.54-1.349,8.224-10.123,8.224-10.123,2.846,9.786,15.182,9.786,22.457,10.123s6.959,6.412,6.959,6.412.037.277.057,1.5l.636.005s4.724-.382,4.346,4.4-4.157,4.2-4.157,4.2S1747.726,961.424,1747.556,962.4Z"/><path class="a" d="M1738.327,979.377"/><path class="a" d="M1747.861,1032.18c-15.084.036-37.121.043-54.6-.266,0,0-3.623-34.195,7.7-41.894s10.643-8.152,18.116-9.285c0,0,6.13,8.768,10.18,11.468l9.748-11.015s13.361,1.812,19.928,12.908,4.982,38.044,4.982,38.044.178,15.2-15.2,15.2h-44.989v-14.058"/><path class="a" d="M1700.962,990.02s8.152,4.3,8.832,9.964a191.262,191.262,0,0,1,.679,31.477"/><path class="a" d="M1755.537,990.7s-8.6,2.718-8.6,14.493.227,26.948.227,26.948"/><path class="a" d="M1739.382,1031.686s-.751-34.178-.376-50.5"/><path class="a" d="M1717.784,1031.349s-.448-30.022,1.294-50.614"/><path class="a" d="M1717.447,994.9s-8.1,2.024-6.075-12.487"/><path class="a" d="M1738.707,994.9s7.761,2.024,7.086-10.8"/><path class="a" d="M1703.727,1047.34s-24.518,1.974-24.141-10.851"/><path class="c" d="M1629.185,1031.849l11.207-6.655,60.689.46,9.234,5.233s5.189,2.188-1.625,3.375c-30.519,5.316-67.274,1.621-79.126.176C1629.564,1034.438,1626.151,1034.156,1629.185,1031.849Z"/><path class="c" d="M1646.618,1029.632s-2.467-9.868,5.345-9.868c0,0,4.539-1.255,6.317,2.1,0,0,1.581-3.952,7.31-3.556s5.927,3.358,5.927,3.358,2.964-4.149,7.31-4.149a4.7,4.7,0,0,1,4.939,3.754s1.383-4.149,4.544-4.149,9.088,0,7.9,11.854C1696.213,1028.98,1671.11,1033.84,1646.618,1029.632Z"/></g></svg>