<svg xmlns="http://www.w3.org/2000/svg" width="134.465" height="159.224" viewBox="0 0 134.465 159.224"><defs><style>.a{fill:#251c16;}</style></defs><g transform="translate(-899 -2182.782)"><g transform="translate(899 2182.782)"><path class="a" d="M274.825,281.179c25.648.061,51.564,12.721,63.587,36a69.218,69.218,0,0,1,7.049,39.674c-3.929,34.582-30.212,66.187-62.109,79.02-16.406,6.6-34.86,6.418-49.984-3.394-4.265-2.766-8.462-6.432-10.073-11.426-4.252-13.2,11.049-20.881,13.27-32.314a7.271,7.271,0,0,0,.119-1.326,2.931,2.931,0,0,0-.037-.342l-.007-.017-.02-.105c-2.194-9.7-12.321-14.528-17.949-21.983-8.761-11.609-8.7-27.228-4.255-40.583a63.549,63.549,0,0,1,31.575-36.908l0,0h0A64.773,64.773,0,0,1,274.825,281.179Zm-.38,3.4c-25.987.064-48,15.592-56.531,40.085-3.577,10.273-4.645,22.21-.047,32.361,4.652,10.273,16.267,15.118,20.8,25.33,4.224,9.52-4.346,16.026-9.046,23.916s-4.75,15.07,2.438,21.068c29.435,24.557,70.785-.776,90.245-25.3,26.255-33.083,30.151-86.1-12.287-108.686A75.718,75.718,0,0,0,274.445,284.583Z" transform="translate(-211.465 -281.179)"/><g transform="translate(38.1 114.667)"><path class="a" d="M238.3,315c4.492-.02,8.3,2.78,10.646,6.442,2.831,4.431,3.889,10.761.892,15.382-4.228,6.513-14.945,6.54-21.153,3.109-5.523-3.055-7.323-9.279-4.977-15.057A15.616,15.616,0,0,1,238.3,315Zm-.159,3.4a12.451,12.451,0,0,0-10.286,5.845c-1.848,2.94-2.6,6.866-.648,9.944,2.95,4.638,11.307,5.632,16.02,3.7,4.269-1.75,5.621-5.876,4.682-10.209-.854-3.943-3.753-8.178-7.9-9.1A8.48,8.48,0,0,0,238.141,318.4Z" transform="translate(-222.702 -315)"/></g><g transform="translate(85.055 100.376)"><path class="a" d="M245.4,310.785c3.214.081,6,2.173,7.723,4.787,2.1,3.19,2.716,7.51.149,10.615a10.315,10.315,0,0,1-6.262,3.19h0c-4.109.773-8.178-.834-9.791-4.838a10.759,10.759,0,0,1,2.641-11.4A8.254,8.254,0,0,1,245.4,310.785Zm-.088,3.4a5.033,5.033,0,0,0-3.59,1.922,7.711,7.711,0,0,0-1.617,6.177,5.211,5.211,0,0,0,1,2.3c2.109,2.411,6.7,1.977,8.978-.02a4.82,4.82,0,0,0,1.112-1.373,6.238,6.238,0,0,0-.98-5.845,8.913,8.913,0,0,0-1.237-1.458A5.478,5.478,0,0,0,245.313,314.185Z" transform="translate(-236.552 -310.785)"/></g><g transform="translate(98.53 75.822)"><path class="a" d="M248.591,303.544c5.7.085,12.043,5.055,10.293,11.256a10.751,10.751,0,0,1-3.7,5.1l-.007,0c-3.421,2.872-8.015,3.275-11.385.156-3.557-3.292-4.475-9.635-1.41-13.555A7.586,7.586,0,0,1,248.591,303.544Zm-.095,3.4a6.292,6.292,0,0,0-.712.044.344.344,0,0,1-.1.014,3.887,3.887,0,0,0-2.709,1.712c-.071.105-.139.214-.207.319l-.017.034-.02.031a6.131,6.131,0,0,0-.729,2.17c-.027.237-.048.475-.058.715-.064,2.689,1.271,5.587,3.841,6.662,2.736,1.231,6.425-1.641,7.493-3.994a5.274,5.274,0,0,0,.519-2.119c-.241-2.587-2.594-4.455-4.94-5.2A8.231,8.231,0,0,0,248.5,306.948Z" transform="translate(-240.526 -303.543)"/></g><g transform="translate(99.182 45.011)"><path class="a" d="M251.108,294.455c4.835.051,7.761,3.885,8.049,8.462.247,3.936-1.509,8.415-5.452,9.849-2.577.936-5.469.231-7.808-1.017l-.007,0a8.729,8.729,0,0,1-5.164-7.2c-.186-3.919,2.743-7.591,6.171-9.151A10.15,10.15,0,0,1,251.108,294.455Zm-.092,3.4a7.3,7.3,0,0,0-6.743,5.252,5.273,5.273,0,0,0-.108,1.7,3.089,3.089,0,0,0,.142.654l.007.03a7.49,7.49,0,0,0,6.394,4.282c2.448-.01,3.858-1.265,4.682-3.563a8.181,8.181,0,0,0,.332-3.55,5.3,5.3,0,0,0-2.648-4.414l-.03-.014A5.522,5.522,0,0,0,251.017,297.859Z" transform="translate(-240.718 -294.455)"/></g><g transform="translate(78.727 18.945)"><path class="a" d="M245.265,286.768a7.715,7.715,0,0,1,7.561,5.689,11.731,11.731,0,0,1,.451,3.882l0,.01c-.071,5.94-4.852,9.829-10.663,8.479-6.391-1.488-10.656-8.879-5.882-14.324A11.658,11.658,0,0,1,245.265,286.768Zm-.1,3.4a8.1,8.1,0,0,0-2.95.614,8.27,8.27,0,0,0-3.044,2.1,4.319,4.319,0,0,0-.424.542l-.024.027a3.863,3.863,0,0,0-.664,2.953,5.74,5.74,0,0,0,.566,1.607,6.547,6.547,0,0,0,1.353,1.709c1.77,1.593,5.106,2.824,7.4,1.482l.024-.01c.159-.091.319-.183.475-.285.078-.058.153-.115.227-.176l.02-.014.024-.024c2.194-2.024,2.5-6.686.573-8.988a4.3,4.3,0,0,0-1.292-1.051l-.027-.017a5.07,5.07,0,0,0-1.946-.461C245.363,290.172,245.265,290.168,245.167,290.168Z" transform="translate(-234.686 -286.767)"/></g><g transform="translate(43.367 14.958)"><path class="a" d="M233.206,285.592c6.126.068,11.382,7.157,9.317,13.036-2.156,6.13-11.409,7.083-15.864,2.943-3.116-2.9-2.906-7.177-1.054-10.741l0,0C227.06,287.887,229.8,285.541,233.206,285.592Zm-.1,3.4a4.03,4.03,0,0,0-.607.048l-.027,0a3.829,3.829,0,0,0-1.343.471,8.133,8.133,0,0,0-3.5,7.032,3.946,3.946,0,0,0,.461,1.458l.034.058a6.212,6.212,0,0,0,4.669,2.526,7.106,7.106,0,0,0,5.157-1.177,4.169,4.169,0,0,0,1.36-1.922,6.425,6.425,0,0,0,.18-.827,5.752,5.752,0,0,0,.047-.837v-.031a7.437,7.437,0,0,0-4.262-6.293,6.646,6.646,0,0,0-1.156-.393l-.031-.01-.149-.031a5.53,5.53,0,0,0-.746-.075A.38.38,0,0,1,233.108,288.992Z" transform="translate(-224.256 -285.591)"/></g><g transform="translate(18.151 37.66)"><path class="a" d="M227.426,292.288A7.743,7.743,0,0,1,235,297.994a11.806,11.806,0,0,1,.437,3.913l0,.014c-.1,5.72-4.56,9.585-10.205,8.527-6.286-1.18-11.083-8.313-6.733-13.972A11.522,11.522,0,0,1,227.426,292.288Zm-.1,3.4c-2.553.054-5.879,1.472-6.866,4.024a4.335,4.335,0,0,0-.305,1.746,6.447,6.447,0,0,0,3.377,4.774,7.612,7.612,0,0,0,3.55,1l.034,0a5.057,5.057,0,0,0,2.794-.736,4.192,4.192,0,0,0,.373-.275c2.434-2.234,2.641-7.91-.319-9.849A4.633,4.633,0,0,0,227.327,295.691Z" transform="translate(-216.818 -292.287)"/></g><g transform="translate(23.037 66.5)"><path class="a" d="M228.629,300.793c4.208.017,7.062,3.021,7.866,6.964.82,4.045-.57,9.161-4.53,11.063-2.682,1.285-5.825.665-8.374-.63l-.01-.007c-2.668-1.353-4.875-3.567-5.262-6.642-.509-4.018,2.343-7.923,5.808-9.649A10.189,10.189,0,0,1,228.629,300.793Zm-.088,3.4a6.1,6.1,0,0,0-1.763.281,7.1,7.1,0,0,0-1.132.454,6.89,6.89,0,0,0-3.967,5.977,3.925,3.925,0,0,0,.085.627c.041.163.085.322.139.478a.393.393,0,0,1,.031.081.368.368,0,0,1,.034.085l.061.139a5.252,5.252,0,0,0,.251.471,8.17,8.17,0,0,0,6.52,3.336,5.391,5.391,0,0,0,1.468-.281l.027-.01c.112-.048.224-.1.332-.156l.054-.027c2.4-1.5,3.058-4.909,2.417-7.516a7.613,7.613,0,0,0-.817-2.034l-.017-.024a4.627,4.627,0,0,0-.437-.587l-.02-.017a3.5,3.5,0,0,0-1.638-1.044,5.274,5.274,0,0,0-1.075-.207l-.034-.007C228.886,304.2,228.714,304.2,228.541,304.2Z" transform="translate(-218.26 -300.793)"/></g></g></g></svg>