<svg xmlns="http://www.w3.org/2000/svg" width="94.229" height="159.973" viewBox="0 0 94.229 159.973"><defs><style>.a{fill:#251c16;}</style></defs><g transform="translate(-899 -3280.399)"><g transform="translate(899 3280.399)"><path class="a" d="M159.321,226.633c-.417-11.453-6.512-20.181-15.186-27.177-8.055-6.493-18.12-10.7-23.089-20.232-4.773-9.158-4.4-20.352-5.014-30.335,3.623-.269,9.12-.161,11.26-3.907a5.8,5.8,0,0,0-1.426-7.438c-1.675-1.394-4.1-1.773-6.18-2.086-8.086-1.223-20.178-2.987-28.568.269-2.614,1.018-4.846,2.674-5.071,5.69-.5,6.718,9.452,7.072,13.656,7.419.534,10.758,1.546,22.957-1.524,33.433a14.226,14.226,0,0,1-.948,2.744,13.609,13.609,0,0,1-3.253,3.7c-8.671,7.682-20.7,12.25-26.172,23.036-3.588,7.075-3.215,15.041-1.132,22.558,2.722,9.825,9.013,16.049,19.1,18.664,11.32,2.93,23.918,3.5,35.415,3.345,7.185-.095,15.256-.234,22.094-3.022C153.723,249.037,159.644,237.707,159.321,226.633ZM92.9,144.6a8.91,8.91,0,0,1-3.285-1.366l-.013-.016-.028-.025-.035-.038-.013-.009-.006-.009-.025-.032-.009-.006-.006-.009,0-.006-.019-.022,0-.006,0-.006v0l-.006-.006-.006-.013v0h0a4.739,4.739,0,0,1-.161-1.859,2.063,2.063,0,0,1,.25-.632c3.452-4.656,14.842-2.813,18.923-2.624.806.038,16.135-1.3,16.451,3.958a3.064,3.064,0,0,1-.575,1.878,2.98,2.98,0,0,1-.212.234,1.813,1.813,0,0,1-.168.149,6.008,6.008,0,0,1-.882.515,11.747,11.747,0,0,1-2.991.645C111.593,146.746,101.193,146.693,92.9,144.6Zm63.259,83.083c-.19,8.15-3.635,16.464-10.7,20.94-10.015,6.341-24.461,4.947-35.523,4.1-10.777-.825-28.23-.341-36.1-10.2-6.281-7.868-7.7-21.265-2.785-30.1,7.552-13.577,27.642-15.876,30.781-31.954,2-10.28,1.587-21.082,1.072-31.489,3.341.149,6.626.13,9.967,0,.986,16.362,1.3,32.156,15.073,42.9,9.142,7.132,20.475,12.465,25.571,23.592A29.4,29.4,0,0,1,156.157,227.683Z" transform="translate(-65.105 -96.363)"/><g transform="translate(27.811)"><path class="a" d="M82.2,122c3.379.569,5.159,5.918,5.959,8.589,2.2,7.334,1,16.441-1.132,23.738-.752,2.567-1.347,5.475-4.318,4.287-3.4-1.356-6.462-9.24-7.536-12.582a24.13,24.13,0,0,1-.771-12.559C75.155,130.078,77.529,122.251,82.2,122Zm-.247,3.285c-5.975,5.15-5.706,15.443-2.927,21.993a31.954,31.954,0,0,0,4.558,7.489c2.324-7.3,3.847-16.8,1.211-24.212a19.33,19.33,0,0,0-2.829-5.279Z" transform="translate(-73.903 -122.004)"/></g><g transform="translate(45.367 9.689)"><path class="a" d="M92.156,125.069l.092.006a1.631,1.631,0,0,1,.86.36h0c2.292,2.994.9,9.907.4,13.015-.689,4.271-2.564,8.026-6.42,10.192-8.69,4.887-8.38-5.561-6.658-11.482,1.6-5.491,6.256-9.066,11.033-11.965h0a1.659,1.659,0,0,1,.2-.07h0a1.513,1.513,0,0,1,.313-.054v0ZM81.5,146.97l-.041.016.1-.035Zm.092-.028-.019.006.079-.019Zm.126-.032-.028.01h0l.013,0,.044-.009h0Zm8.785-17c-5.94,4.777-8.719,8.93-7.419,16.947,4.268-1.255,6.411-4.185,7.227-8.475.541-2.845.193-5.757.379-8.624Z" transform="translate(-79.457 -125.069)"/></g><g transform="translate(37.776 96.24)"><path class="a" d="M85.131,152.448c4.008-.022,6.161,3.284,6.4,7.068.193,3.035-.91,6.3-3.885,7.539a8.154,8.154,0,0,1-6.161-.43h-.006c-5.943-2.352-5.763-10.065-.3-13.135A8.239,8.239,0,0,1,85.131,152.448Zm-.085,3.174a5.18,5.18,0,0,0-4.821,3.917,4.226,4.226,0,0,0-.06,1.464v.019c.019.092.041.18.063.269a3.048,3.048,0,0,0,.386.844c1.182,1.5,3.733,2.649,5.627,2.055a3.638,3.638,0,0,0,.854-.439l.013-.013.016-.013.016-.013.016-.013a5.718,5.718,0,0,0,.895-5.7,5.9,5.9,0,0,0-.8-1.571l-.009-.013-.111-.126-.016-.013-.047-.054-.089-.076-.009-.013a1.129,1.129,0,0,0-.12-.095l-.079-.054-.044-.028-.047-.025-.009-.006-.009-.006-.025-.009A3.282,3.282,0,0,0,85.046,155.622Z" transform="translate(-77.055 -152.448)"/></g><g transform="translate(68.308 121.485)"><path class="a" d="M94.691,160.434c6.427.24,6.714,9.1,2.083,12.281a6.438,6.438,0,0,1-9.895-6.838,6.173,6.173,0,0,1,3.5-4.369l.006-.006A11.5,11.5,0,0,1,94.691,160.434Zm-.082,3.177a6.85,6.85,0,0,0-3.013.831,3.935,3.935,0,0,0-.4.237c-.079.054-.158.114-.234.174s-.139.123-.205.186l-.041.041-.009.016a2.5,2.5,0,0,0-.512.765l-.009.022a1.939,1.939,0,0,0-.092.237,3.807,3.807,0,0,0,1.928,4.508l.123.041.016.006.126.035a3.3,3.3,0,0,0,.36.066,3.023,3.023,0,0,0,.379.006,3.252,3.252,0,0,0,.885-.171,4.438,4.438,0,0,0,2.848-5.09,3.762,3.762,0,0,0-.528-1.255,1.275,1.275,0,0,0-.152-.168l-.085-.076-.009-.006-.073-.057-.038-.022-.006-.009-.016-.006-.019-.016a1.165,1.165,0,0,0-.123-.066l-.013-.009-.013,0-.038-.022-.028-.013-.013,0c-.028-.013-.057-.025-.085-.035l-.013-.006-.019,0-.013-.009-.032-.006A2.484,2.484,0,0,0,94.609,163.611Z" transform="translate(-86.713 -160.434)"/></g><g transform="translate(31.232 133.77)"><path class="a" d="M82.395,164.323a7.7,7.7,0,0,1,7.521,6.095,7.971,7.971,0,0,1-4.091,8.769,9.366,9.366,0,0,1-6.781.294h0c-6.42-1.824-4.359-11.444.253-14.187A5.67,5.67,0,0,1,82.395,164.323Zm-.063,3.171a.251.251,0,0,0-.07,0,.628.628,0,0,0-.133.009.8.8,0,0,0-.079.013l-.028,0-.063.013c-.073.016-.149.038-.221.06l-.047.016A6.729,6.729,0,0,0,78.336,175a3.035,3.035,0,0,0,.2.424l.009.013a1.5,1.5,0,0,0,.168.234l.032.038.009.016.07.073.013.013a1.633,1.633,0,0,0,.174.158l.085.066.013.009.019.009a1.456,1.456,0,0,0,.209.133l.016.006.019.013a6.112,6.112,0,0,0,5.355-.028,4.732,4.732,0,0,0,2.188-4.154,5.08,5.08,0,0,0-.639-2.384,4.7,4.7,0,0,0-3.828-2.146h-.016l-.041,0h-.057Z" transform="translate(-74.985 -164.32)"/></g></g></g></svg>