<svg xmlns="http://www.w3.org/2000/svg" width="155.153" height="175.611" viewBox="0 0 155.153 175.611"><defs><style>.a{stroke:#707070;font-size:9px;font-family:D3-Radicalism, D3 Radicalism;}.a,.b,.c{stroke-linecap:round;}.b{fill:none;}.b,.c{stroke:#251c16;stroke-width:4px;}.c{fill:#85d3c4;}</style></defs><g transform="translate(-293.457 -1347.37)"><g transform="translate(295.801 1377.145) rotate(-11)"><g transform="translate(0 0)"><text class="a" transform="translate(6.63 11.952)"><tspan x="0" y="0">1.</tspan></text><text class="a" transform="translate(52.365 11.952)"><tspan x="0" y="0">2.</tspan></text><text class="a" transform="translate(100.388 11.952)"><tspan x="0" y="0">3.</tspan></text><line class="b" y1="48.785" transform="translate(46.194 0.13)"/><line class="b" y1="48.785" transform="translate(94.569 0.13)"/><rect class="b" width="143.752" height="49.015" rx="14.173"/></g><path class="b" d="M5.447,10.631S-.445,11.1.027,5.211,5.211.026,5.211.026" transform="translate(30.236 68.479)"/><path class="b" d="M0,.009S5.891-.462,5.42,5.43.235,10.614.235,10.614" transform="translate(83.739 68.683)"/><path class="b" d="M0,0" transform="translate(70.058 95.575)"/><path class="b" d="M48.192,0S62.082,3.563,68.916,15.11,74.1,54.7,74.1,54.7s-46.9.236-73.527-.235c0,0-3.77-35.584,8.013-43.6S21.636,1.426,26.8,0" transform="translate(22.587 95.782)"/><path class="b" d="M0,0A19.211,19.211,0,0,1,4.211,10.369c.324,5.891.756,21.21.324,32.757" transform="translate(31.174 106.651)"/><path class="b" d="M4.136,0S0,2.828,0,15.082.109,43.125.109,43.125" transform="translate(83.833 107.359)"/><g transform="translate(30.063 31.651)"><path class="c" d="M5.588,31.167S4.882,44.835,8.181,53.319c2.49,6.4,8.72,12.961,22.388,12.961s19.089-9.9,19.089-9.9c6.6-9.426,3.772-25.543,3.772-25.543v-.263s-.006-4.2-.006-15.05S41.511,7.663,41.511,7.663C34.531-5.8,22.041,2.57,22.041,2.57,10.653,12.392,0,4.389,0,4.389c1.083,6.362,2.574,10.3,5.772,13.32Z"/></g><path class="b" d="M0,0" transform="translate(109.378 29.226)"/><path class="b" d="M48.87,0s-.223,15.5-12.9,16.109c0,0-5.947.31-7.943,4.836-2.167,4.91-6.26,2.571-6.922.266-1.589-5.534-5.093-4.9-5.093-4.9C6.861,15.7,0,10.794,0,2.614" transform="translate(35.425 68.829)"/></g></g></svg>