<svg xmlns="http://www.w3.org/2000/svg" width="183.337" height="145.056" viewBox="0 0 183.337 145.056"><defs><style>.a{fill:none;}.a,.b,.c{stroke:#251c16;stroke-linecap:round;stroke-width:4px;}.b{fill:#85d3c4;}.c{fill:#fff;}.d{font-size:17.864px;font-family:D3-Radicalism, D3 Radicalism;}</style></defs><g transform="translate(-1294.137 -981.905) rotate(7)"><path class="a" d="M1469.379,869.328a20.688,20.688,0,0,1,6.567-1.358"/><circle class="a" cx="0.906" cy="0.906" r="0.906" transform="translate(1473.228 872.046)"/><path class="a" d="M1481.43,877.845s4.279.147,3.863,3.5-4.886,2.446-4.886,2.446l-.06,0a19.8,19.8,0,0,1-2.706,5.842s-5.209,9.511-18.343,9.511-19.12-6.3-21.513-12.455c-3.17-8.152-2.491-21.287-2.491-21.287s-.175-22.783,18.3-23.1c0,0,19.907-2.788,24.287,6.768S1482.05,871.056,1481.43,877.845Z"/><path class="a" d="M1469.036,898.694s13.36,1.811,19.928,12.908,4.982,38.044,4.982,38.044-45.065.226-70.654-.227c0,0-3.623-34.194,7.7-41.893s10.643-8.153,18.116-9.285c0,0-1.359,11.323,8.6,11.775s10.417-10.869,10.643-13.134"/><path class="a" d="M1430.992,907.526s8.152,4.3,8.831,9.963a191.26,191.26,0,0,1,.68,31.477"/><path class="a" d="M1485.567,908.205s-8.6,2.717-8.6,14.493.226,26.948.226,26.948"/><path class="a" d="M1471.19,887.985a7.749,7.749,0,0,0,5.011,3.072"/><path class="a" d="M1440.915,891.081s9.426-2.507,10-15.032c0,0-.755-4.715,4.982-4.982,0,0-4.529-.68-4.982,4.982s5.209,5.208,5.209,5.208"/><path class="b" d="M1455.044,870.209a8.1,8.1,0,0,0,6.019,1.463s-3.392-13.219,5.647-12.117a55.8,55.8,0,0,0,6.68.5s16.217-.06,10.224-22.724c0,0-.166,5.93-7.158,5.28l-13.58-.537"/><path class="a" d="M1526.9,846.168s-5.04.383-4.637-4.394,4.435-4.2,4.435-4.2"/><path class="a" d="M1582.283,879.333c5.688-9.1,1.82-18.657-.683-22.525a29.919,29.919,0,0,1-4.095-15.7c.227-5.233-.228-13.424-.228-13.424-5.915-23.663-27.985-22.07-27.985-22.07-27.986,0-26.621,29.8-26.621,29.8s.683,14.79-5.005,22.981-2.276,18.884,0,21.615"/><path class="a" d="M1529.559,835.418a20.677,20.677,0,0,1,6.567-1.359"/><path class="a" d="M1551.441,833.986a20.678,20.678,0,0,1,6.59,1.246"/><path class="a" d="M1541.3,845.543s-.453,3.85,2.717,3.623,3.4-3.623,3.4-3.623"/><path class="a" d="M1538.944,853.661s4.135,4.04,10.829,0"/><circle class="a" cx="0.906" cy="0.906" r="0.906" transform="translate(1533.149 837.617)"/><circle class="a" cx="1.132" cy="1.132" r="1.132" transform="translate(1553.077 837.617)"/><path class="a" d="M1568.816,846.741a26.7,26.7,0,0,1-3.99,9.9s-6.642,9.258-15.805,9.349c-10.132.1-17.921-6.3-20.164-12.455-2.971-8.152-2.3-17.479-2.3-17.479.6-3.47,5.378-6.412,5.378-6.412,8.54-1.35,8.223-10.124,8.223-10.124,2.847,9.787,15.183,9.787,22.458,10.124s6.958,6.412,6.958,6.412.038.276.058,1.5l.636.006s4.723-.383,4.346,4.394-4.158,4.2-4.158,4.2S1568.986,845.769,1568.816,846.741Z"/><path class="a" d="M1559.587,863.721"/><path class="a" d="M1569.121,916.524c-15.084.036-37.121.044-54.6-.266,0,0-3.624-34.194,7.7-41.893s10.643-8.153,18.116-9.285c0,0,6.13,8.768,10.18,11.467l9.748-11.014s13.361,1.812,19.928,12.908,4.982,38.044,4.982,38.044.178,15.2-15.2,15.2h-44.989V917.627"/><path class="a" d="M1522.222,874.365s8.152,4.3,8.832,9.964a191.258,191.258,0,0,1,.679,31.477"/><path class="a" d="M1576.8,875.044s-8.6,2.717-8.6,14.493.226,26.948.226,26.948"/><path class="a" d="M1560.642,916.031s-.751-34.178-.376-50.5"/><path class="a" d="M1539.044,915.693s-.448-30.021,1.294-50.613"/><path class="a" d="M1538.706,879.247s-8.1,2.025-6.074-12.486"/><path class="a" d="M1559.967,879.247s7.761,2.025,7.086-10.8"/><path class="a" d="M1524.987,931.685s-24.518,1.973-24.141-10.852"/><circle class="c" cx="21.554" cy="21.554" r="21.554" transform="translate(1488.818 880.024)"/><text class="d" transform="translate(1495.645 908.771)"><tspan x="0" y="0">1:02</tspan></text></g></svg>