<svg xmlns="http://www.w3.org/2000/svg" width="160" height="115.341" viewBox="0 0 160 115.341"><defs><style>.a{fill:#251c16;}</style></defs><g transform="translate(-1023.004 -2722.351)"><g transform="translate(1029.734 2743.868)"><path class="a" d="M-524.986,225.22l.21.043.2.066c.066.027.132.058.2.09l.163.093.128.089.152.125.14.14.09.109a2.937,2.937,0,0,1,.226.346c.031.066.062.136.09.2l.082.226.008.047.02.058.019.086c.027.121.043.241.063.362l.008.074.012.074,0,.074c-.377,22.151,6.785,45.594,3.132,67.574l-.012.066c-.066.307-.136.615-.226.914-.031.082-.058.163-.086.245l-.05.121-.027.07c-.058.128-.12.257-.187.381a1.237,1.237,0,0,0-.082.136,4.219,4.219,0,0,1-.253.338c-.074.074-.148.148-.229.218a2.582,2.582,0,0,1-.206.156l-.07.043a3.685,3.685,0,0,1-.346.191l-.1.047c-.074.027-.144.054-.214.086l-.152.054-.055.016c-.07.023-.136.047-.206.066-.109.031-.218.058-.327.086l-.058.019c-15.472,3.272-34.76,3.832-50.2,1.019a18.1,18.1,0,0,1-4.5-1.206l-.117-.07-.066-.039a3.217,3.217,0,0,1-.3-.206l-.183-.152-.12-.109a3.985,3.985,0,0,1-.3-.338l-.1-.144a19.773,19.773,0,0,1-2.976-11.492c1.14-29.313,31.694-50.508,55.985-60.342l.2-.047.214-.023h.21Zm-2.182,4.863c-11.029,4.855-22.793,10.757-31.274,19.537l-.062.066c-.062.062-.125.128-.183.2l-.066.062c-7.551,8.212-14.752,18.09-17.969,28.928a22.5,22.5,0,0,0-.552,12.317c.043.132.082.268.124.4.024.082.051.163.078.241l.027.082a17.039,17.039,0,0,0,1.35,2.836l.02.031.058.027.1.043.035.016.062.019.078.031.156.054.043.008.238.074c.167.043.334.082.5.125l.058.012a3.365,3.365,0,0,0,.393.082c.14.031.28.055.42.082a2.125,2.125,0,0,1,.226.039c15.565,2.4,33.857,2.326,49.383-.821l.016-.058.015-.086.012-.047a.85.85,0,0,1,.023-.144c0-.051.015-.105.023-.156.008-.074.02-.148.035-.226,2.552-21.058-3.307-42.719-3.307-63.8Z" transform="translate(581.819 -225.201)"/></g><g transform="translate(1085.622 2812.519)"><path class="a" d="M-552.961,242.985c11.756,0,23.517.043,35.273.043l.191.008.191.027.186.047.183.062.171.082.164.1.151.117.144.128.128.14.117.152.1.167.082.175.062.179.047.183.031.191.008.194-.008.191-.031.187-.047.187-.062.179-.082.175-.1.167-.117.152-.128.14-.144.128-.151.117-.164.1-.171.082-.183.066-.186.047-.191.023-.191.012c-15.728.008-31.461-.194-47.189-.012h-.054l-.085.008h-.191l-.191-.016-.187-.039h0l-.16-.047-.152-.058h0l-.163-.078-.148-.093-.144-.109-.132-.117-.124-.132-.109-.14-.093-.152h0l-.086-.171-.07-.179-.051-.183-.039-.191-.012-.187,0-.191.02-.191.043-.187.058-.183.078-.175.094-.167.109-.156.125-.144.136-.136h0l.132-.105.144-.1.144-.082.16-.066.16-.054h0l.132-.035.195-.035C-561.278,242.647-557.034,242.985-552.961,242.985Zm-11.811,3.914.078-.012.043-.012Zm.315-3.758.125.051v0l-.148-.066-.159-.039Z" transform="translate(567.067 -242.848)"/></g><g transform="translate(1134.295 2725.638)"><path class="a" d="M-552.191,220.542l.226.051.225.082.21.1.194.128h0l.167.14.148.152.128.167.113.187.089.195.066.2h0l.035.136.023.14.019.191c1.381,23.929,2.848,48,2.871,71.982l-.012.237-.043.23-.07.226-.1.214-.121.2-.148.187-.163.167-.187.144-.2.121-.214.1-.226.07-.233.043-.234.016-.237-.016-.23-.043-.226-.07-.218-.1-.2-.121-.187-.144-.167-.167-.144-.187-.121-.2-.1-.214-.066-.226-.043-.23-.016-.237c-.031-23.894-1.466-47.855-2.867-71.7l0-.027,0,.019.023.167.035.132.008.008-.039-.136-.035-.233,0-.237.024-.229.054-.233.078-.222.1-.21.128-.2.152-.179.175-.16.191-.136.206-.117.222-.089.222-.062.237-.031.233-.008Z" transform="translate(554.455 -220.515)"/></g><g transform="translate(1134.271 2725.996)"><path class="a" d="M-552.162,220.615l.214.031.2.051.2.074.187.1.179.113.167.132.148.152.132.163.113.179.093.191.016.047c8.916,19.8,18.432,39.323,27.038,59.265l.07.195.051.21.027.206.008.21-.015.214-.043.206-.062.2-.082.194-.1.183-.125.171-.14.159-.156.14-.175.125-.183.1-.194.082-.206.066-.206.039-.206.016-.214,0-.21-.031-.2-.047-.2-.078-.187-.093-.179-.113-.163-.132-.152-.152-.132-.163-.113-.179c-8.749-19.977-18.195-39.63-27.15-59.51l-.074-.2-.05-.2-.023-.214-.008-.21.02-.21.043-.21.058-.2.086-.195.1-.183.125-.171.14-.156.16-.14.175-.124.183-.1.194-.086.2-.062.206-.039.21-.016Z" transform="translate(554.278 -220.607)"/></g><g transform="translate(1110.253 2722.351)"><path class="a" d="M-538.731,219.67a10.007,10.007,0,0,1,2.474.288,1.086,1.086,0,0,1,.159.047,6.852,6.852,0,0,1,1.276.49l.16.082c.206.117.412.241.611.37l.369.276a6.233,6.233,0,0,1,.471.436l.093.1.027.039a6.133,6.133,0,0,1,.941,1.685c.016.047.035.093.055.14l.047.144.027.078.066.222c.023.105.051.21.07.315l.023.132,0,.047.016.089.008.171v.187l-.012.214-.031.171-.051.194a2.419,2.419,0,0,1-.136.354l-.078.136-.074.117-.09.117a2.725,2.725,0,0,1-.206.214l-.081.074-.082.062-.008,0-.07.054-.074.047-.008,0a2.7,2.7,0,0,1-.257.132l-.183.07c-.089.023-.183.047-.272.062l-.008,0c-.09.012-.175.023-.264.027h-.16l-.14-.008-.14-.023-.07-.016c-7.839.2-15.764.646-23.6.14l-.063,0a6.319,6.319,0,0,1-.716-.1l-.191-.043-.159-.047-.183-.07a2.41,2.41,0,0,1-.315-.163q-.1-.07-.2-.14l-.148-.128-.039-.039c-.07-.078-.136-.156-.2-.237l-.031-.043-.062-.086-.031-.051-.051-.078a2.235,2.235,0,0,1-.14-.268l-.078-.2a2.447,2.447,0,0,1-.117-1.183l.027-.16.043-.167.07-.2.043-.105.062-.132.02-.031.031-.062c.043-.07.082-.136.128-.2l.031-.043.027-.043.058-.074c.09-.105.179-.2.276-.3a4.492,4.492,0,0,1,.4-.327c.109-.074.222-.148.338-.214.2-.113.409-.21.615-.307a5.026,5.026,0,0,1,.506-.195l.074-.027c.2-.07.409-.136.615-.194l.074-.023C-551.27,219.9-544.859,219.67-538.731,219.67Zm5.684,3.707h0l-.063-.031Z" transform="translate(560.676 -219.67)"/></g><g transform="translate(1132.873 2785.298)"><path class="a" d="M-524.3,235.852a30.931,30.931,0,0,1,15.351,3.824l.109.07c.1.058.187.117.284.175l.051.039a12.583,12.583,0,0,1,1.249.934c.078.07.155.14.237.21a9.748,9.748,0,0,1,1.046,1.113c.194.253.377.514.545.782l.128.226c.1.187.194.381.28.572.023.062.05.12.078.179s.043.125.066.183c.051.148.1.292.144.444l.047.183.02.062.066.331c.023.128.043.261.058.393l.011.136.012.132.008.136v.062l0,.066v.276l0,.062v.074l-.008.136c-.008.117-.019.23-.031.342l-.012.062-.008.074c-.043.272-.1.545-.167.813a8.207,8.207,0,0,1-.327.941c-.031.07-.058.136-.089.206l-.031.062-.027.07c-.113.222-.226.443-.35.661-.14.245-.292.486-.455.716l-.043.07a1.716,1.716,0,0,0-.14.191c-.167.218-.335.428-.514.634l-.05.051-.043.055-.249.261c-.055.051-.1.1-.16.152l-.051.047c-.171.167-.35.315-.529.471-.113.086-.226.171-.335.257-.28.2-.564.4-.86.576-.233.14-.471.272-.716.4-3.233,1.6-6.917,1.848-10.173,3.338l-.047.019-.043.019-.086.039-.082.043-.082.035c-.187.093-.373.191-.556.292l-.07.039c-.066.039-.136.078-.2.113-.2.121-.4.237-.6.358l-.261.167-.07.039c-.191.132-.389.257-.584.389l-.058.047c-4.108,2.879-7.361,6.785-11.426,9.726l-.074.051c-.269.187-.537.37-.809.549l-.082.047-.533.338c-.21.121-.42.241-.63.366-.132.078-.264.148-.4.218l-.082.047q-.35.187-.712.362l-.191.086-.051.027-.05.016a2.827,2.827,0,0,1-.3.121l-.047.019c-.05.019-.1.035-.148.05l-.055.023a30.042,30.042,0,0,1-10.274.879l-.144-.023a7.746,7.746,0,0,1-2.852-1.144c-.14-.1-.276-.2-.412-.307l-.066-.058-.066-.051c-.043-.039-.085-.078-.128-.113-.082-.082-.163-.156-.245-.233a6.993,6.993,0,0,1-.552-.626l-.144-.194c-.078-.113-.156-.226-.229-.342-.1-.163-.194-.327-.284-.494a8.858,8.858,0,0,1-.879-2.817c-.02-.128-.035-.253-.054-.377-.008-.105-.02-.206-.031-.307-.762-10.134,5.065-18.658,13.616-23.384,4.334-2.4,9.387-4.727,14.316-5.209C-525.86,235.875-525.078,235.844-524.3,235.852Zm-.245,3.906a15.172,15.172,0,0,0-3.112.284l-.2.047-.062.016-.058.016c-5.174,1.595-10.473,3.567-14.849,6.847-.113.082-.226.171-.335.261a23.121,23.121,0,0,0-2.572,2.365c-3.073,3.35-4.47,7.854-4.933,12.313l0,.062-.008.062,0,.117-.008.062-.02.3v.062l-.012.179v.058l0,.062v.525l0,.222c.012.148.016.3.027.44l.008.058.015.206c.02.156.043.311.066.463l.012.043.023.148c.039.164.078.331.121.494l.015.039.012.043.015.047.012.039.016.035.043.125a1.337,1.337,0,0,0,.078.187l.012.035.051.105.015.031.051.1.039.066.019.035.07.117.062.086.02.031.058.082.023.023.023.035.109.125.023.019.023.027.07.07.023.023.023.019.078.07.027.016.051.047.113.078.121.082.035.016.031.023.167.089.113.051.113.047c.055.02.109.039.163.062l.179.058.047.012.1.027.1.019.051.016.031,0,.02,0a50.011,50.011,0,0,0,5.812-.171l.1-.016.1-.008a14.643,14.643,0,0,0,2.21-.4l.26-.078.058-.019.027-.008.058-.023.027-.008.023-.008.105-.043.019-.008.023-.012.023-.012.024-.008.043-.019.02-.008.019-.012a15.538,15.538,0,0,0,1.809-1.011l.066-.039c.128-.086.253-.167.377-.249,4.244-2.855,7.524-6.894,11.663-9.889.37-.261.747-.514,1.128-.759.078-.047.156-.093.233-.148.5-.292.984-.607,1.505-.86l.058-.035a1.233,1.233,0,0,0,.175-.089c.1-.043.195-.09.288-.136l.179-.082.058-.027.121-.051c2.606-1.035,5.353-1.572,8.018-2.427.4-.136.805-.292,1.2-.459l.047-.019c.253-.117.506-.233.751-.366l.284-.159.043-.027.039-.019.039-.027.039-.023.152-.1.035-.023.074-.051.035-.023.035-.027.078-.051.031-.023c.058-.039.116-.086.171-.128l.031-.031.066-.051.031-.027.035-.023.031-.031.031-.023.031-.031.089-.082.035-.031.031-.027.023-.027.035-.027.027-.027.027-.035.031-.027.023-.027.031-.031.023-.027.031-.031.031-.035.019-.027.027-.027.031-.035.023-.031.027-.027.125-.163.019-.031c.062-.086.125-.171.183-.257s.109-.163.159-.249l.02-.039.05-.078c.027-.054.055-.1.086-.156a1.477,1.477,0,0,1,.082-.152l.047-.109.016-.035.019-.035.012-.035.015-.031.043-.109.012-.035.016-.027.019-.066.015-.035.008-.031.02-.062.008-.031.012-.027.008-.035.008-.031.008-.031,0-.023.012-.031.015-.086,0-.031.008-.027.027-.187v-.023l0-.062v-.043l0-.023v-.148l0-.027v-.093l-.008-.047v-.02l-.008-.031v-.019l0-.019,0-.031,0-.019-.008-.023,0-.027,0-.016,0-.027,0-.016,0-.027-.031-.1v-.016l-.008-.027-.012-.023-.007-.023-.008-.023-.008-.019-.008-.031-.011-.019-.008-.019-.008-.027-.012-.023-.031-.07-.023-.051-.008-.023-.027-.047-.012-.023-.015-.031-.055-.093-.012-.023-.015-.023-.02-.027-.051-.082-.016-.023-.015-.019-.016-.023-.078-.109-.016-.02-.039-.054-.047-.054-.043-.055-.023-.023-.019-.027-.047-.054-.023-.023-.023-.027-.027-.027-.05-.054-.023-.023-.031-.027-.019-.027-.113-.109-.027-.027-.027-.027-.035-.027-.023-.027-.031-.023-.035-.031-.027-.027-.031-.027-.031-.027-.035-.023-.058-.055-.1-.082-.031-.031-.07-.051-.035-.027-.035-.023c-.07-.058-.144-.113-.218-.167l-.116-.074-.078-.058-.2-.128-.039-.027c-.471-.276-.934-.537-1.424-.786A30.675,30.675,0,0,0-524.545,239.758Z" transform="translate(554.637 -235.851)"/></g><g transform="translate(1140.016 2801.495)"><path class="a" d="M-517,240.026l.163.031.163.043.152.055.152.066.148.082.136.093.128.105.121.113.109.121.1.136c.117.187.222.377.319.572.082.14.148.288.226.436.082.171.163.338.241.51.218.494.416,1,.591,1.513l.031.07c.082.257.171.51.237.77.043.124.082.257.113.385l.02.082a21.75,21.75,0,0,1,.517,7.831,26.467,26.467,0,0,1-6.275,14.285l-.054.054c-.035.043-.07.086-.1.124l-.058.054-.051.062c-.393.424-.794.84-1.214,1.241l-.058.051c-.21.2-.424.393-.646.58l-.055.054q-.508.432-1.038.829l-.062.051c-.249.183-.51.358-.762.541q-.741.5-1.525.926l-.412.218-.07.031-.276.14c-.475.21-.942.42-1.428.6l-.078.027-.07.027c-.194.074-.389.14-.591.2l-.07.023c-.451.128-.9.257-1.362.354l-.074.019-.078.012a22.886,22.886,0,0,1-9.722-.2l-.074-.023a3.087,3.087,0,0,1-.362-.093l-.074-.016c-.265-.074-.529-.152-.786-.237a11.2,11.2,0,0,1-1.4-.51l-.07-.023c-.229-.1-.459-.2-.685-.3-.159-.078-.319-.152-.475-.226l-.066-.039-.335-.167c-.443-.233-.871-.49-1.3-.751l-.062-.043a19.18,19.18,0,0,1-2.288-1.755l-.054-.051c-.058-.051-.113-.1-.167-.159l-.055-.051-.054-.058-.113-.1a2.2,2.2,0,0,0-.163-.167,20.011,20.011,0,0,1-2.128-2.529q-.286-.409-.548-.829a19.024,19.024,0,0,1-1.058-2.035c-.058-.136-.109-.276-.159-.416l-.019-.054a21.651,21.651,0,0,1-.817-3.318l-.012-.167,0-.163.02-.167.031-.159.047-.159.063-.156.07-.152.082-.14.1-.132.109-.128.117-.117.128-.109.136-.09.144-.089.147-.066.156-.058.159-.047.163-.027.163-.019.167,0,.167.012.163.027.16.039.156.054.152.062.148.078.14.093.128.1.121.113.113.124.1.132.089.14.078.144.062.152.051.159a22.917,22.917,0,0,0,.685,2.75l.031.1.016.031.011.035.008.027.043.1.008.023.012.019q.169.379.362.747c.051.086.1.175.148.265.113.2.233.389.354.584.21.323.436.638.669.945l.144.183.047.066c.086.1.171.2.253.3l.054.058c.136.16.276.319.416.475l.058.058c.12.132.245.261.37.389.183.179.366.354.552.529a2.236,2.236,0,0,1,.175.156l.047.035.043.039.09.074.047.035.043.043c.245.195.49.385.747.564l.047.031.047.035.245.163.047.035.05.027c.082.058.163.105.245.159l.051.027a1.531,1.531,0,0,0,.2.121l.051.035c.237.136.479.261.72.393.23.113.459.222.693.331l.058.019.051.027.054.019.055.023.054.023.054.023.167.066.054.023.331.132.058.016.109.043.058.019.167.058.175.054.054.023.347.105.054.016c.058.02.117.035.175.051l.058.016.233.062.058.019a19.424,19.424,0,0,0,8.24.2l.058-.012.054-.012.058-.016.058-.012.455-.113.051-.019.117-.027.167-.055.058-.016.167-.051.055-.023.167-.054.054-.019.058-.02c.2-.074.4-.156.6-.233l.054-.027.058-.019.05-.027.058-.019.377-.175.051-.031.058-.023a1.254,1.254,0,0,1,.163-.078,1.856,1.856,0,0,1,.214-.113c.1-.062.21-.117.319-.175l.156-.093.054-.027.1-.066c.089-.051.179-.105.265-.159l.047-.031.051-.035c.28-.175.556-.362.821-.56.171-.121.338-.253.5-.385l.051-.035c.078-.066.163-.136.245-.2l.047-.043.051-.043.047-.043q.175-.14.338-.292l.047-.047q.607-.543,1.159-1.14a22.986,22.986,0,0,0,5.61-11.924c.016-.136.035-.272.047-.408a5.009,5.009,0,0,0,.062-.541,1.691,1.691,0,0,1,.019-.2c0-.09.012-.179.02-.265a5.686,5.686,0,0,0,.031-.677c.023-.335.012-.665.012-1l0-.062v-.136l-.008-.132v-.066l-.027-.525-.008-.066,0-.062,0-.07,0-.066-.008-.062c-.019-.218-.047-.432-.07-.65l-.008-.066c-.011-.085-.023-.171-.039-.257l-.008-.066c-.078-.467-.167-.926-.272-1.389a1.4,1.4,0,0,1-.047-.183l-.019-.062c-.02-.082-.039-.167-.066-.249l-.015-.058-.035-.121-.023-.062c-.031-.125-.07-.245-.113-.366l-.02-.062a1.388,1.388,0,0,1-.058-.179c-.058-.156-.121-.315-.179-.475-.144-.374-.307-.735-.486-1.093l-.023-.058a1.317,1.317,0,0,1-.086-.167c-.039-.078-.082-.152-.121-.222-.058-.105-.113-.214-.171-.319l-.058-.156-.05-.156c-.023-.109-.043-.218-.058-.331l-.008-.163.008-.163.024-.167.035-.159.05-.163.058-.152.078-.148.085-.144.1-.132.109-.125.121-.113.128-.105.14-.093.14-.078.152-.07.155-.055.163-.043.16-.031.167-.012h.167Z" transform="translate(552.801 -240.014)"/></g><g transform="translate(1044.812 2813.866)"><path class="a" d="M-539.056,243.194l.167.019.16.027.163.047.152.058.152.07.144.086.136.09.128.109.117.117.1.124.1.136.082.14.078.152.058.156.043.156.035.163.019.167,0,.164a25.666,25.666,0,0,1-6.108,14.332,22.506,22.506,0,0,1-7.516,5.777c-.2.093-.408.183-.611.268-.319.132-.638.257-.961.377-.21.074-.42.148-.63.21-.568.183-1.144.339-1.724.467l-.078.016c-.218.047-.44.089-.661.128l-.07.012q-.152.029-.3.047l-.07.016-.074.008-.078.012a18.31,18.31,0,0,1-4.544.066,18.038,18.038,0,0,1-4.47-1.062l-.07-.027-.066-.027c-.089-.035-.179-.07-.269-.109q-.467-.2-.922-.42c-.195-.1-.385-.2-.576-.3-.257-.136-.506-.28-.751-.436l-.066-.035-.245-.152c-.121-.082-.241-.163-.362-.237l-.058-.043c-.082-.054-.163-.105-.237-.163a22.766,22.766,0,0,1-7.862-9.975c-.093-.233-.183-.467-.264-.7-.121-.385-.253-.766-.366-1.155s-.195-.774-.292-1.159c-.14-.778-.3-1.544-.393-2.326l-.016-.156-.016-.222V248l0-.051v-.055l.012-.187.008-.043c.016-.136.035-.268.058-.4.023-.117.051-.233.078-.354l0,0-.016-.035-.054-.156-.043-.163-.027-.163-.012-.163v-.167l.012-.163.031-.163.043-.163.055-.152.07-.156.078-.144.1-.136.1-.128.113-.117.124-.113.132-.093.144-.086.148-.078.09-.039.179-.066.128-.039.237-.055.09-.016c.07-.008.14-.016.21-.019s.152,0,.226,0a2.122,2.122,0,0,1,.269.039l.14.031.148.047.156.058.144.074.14.086.14.1c.066.054.128.113.191.171l.008,0,.12.136c.043.054.086.109.125.163a1.714,1.714,0,0,1,.136.233l.063.124.082.237.042.179a2.613,2.613,0,0,1,.043.393v.128l-.012.159v.039a4.2,4.2,0,0,1-.07.432c-.02.078-.039.159-.062.237a4.481,4.481,0,0,1-.132.478l0,.039a1.71,1.71,0,0,0-.047.187l-.016.062,0,.023-.008.019,0,.031,0,.016v.039l.109.766.016.074.035.23c.109.545.21,1.085.35,1.622.175.591.354,1.179.583,1.751a19.444,19.444,0,0,0,1.186,2.381,18.522,18.522,0,0,0,5.781,6.123l.1.058.047.031c.081.051.163.1.245.148l.043.031c.148.082.3.167.443.245l.051.027c.113.062.226.121.343.175a2.6,2.6,0,0,0,.257.124c.082.039.163.078.249.113l.051.027.152.062.047.019.206.086.051.016.051.023.51.183.156.047.047.016.055.016.051.019.389.105c.062.016.128.031.191.051l.07.016c.21.054.424.1.634.144l.066.008.062.016.066.012c.167.039.335.066.506.09l.062.008c.148.023.3.039.439.054l.062.012.066,0,.245.027.066,0,.058.008.128.008.058.008.369.019h.062l.125.008h.058l.063,0h.12l.062,0h.366l.058,0h.062l.062,0h.121l.241-.016h.058l.121,0,.058-.008.179-.012.063-.008.058,0,.058-.008a2.353,2.353,0,0,0,.237-.023l.062,0,.175-.019.054-.012.179-.023.058-.008.062-.008.054-.012.058-.008.584-.105.058-.016.113-.023.117-.027.054-.012.171-.043.058-.012.117-.027.055-.019a2.143,2.143,0,0,0,.226-.058l.058-.016.058-.016.054-.016.055-.02.058-.012c.226-.074.447-.144.673-.222l.054-.019.054-.019.109-.043.058-.016.494-.195.05-.023.109-.043.109-.051.055-.023.109-.051.055-.019a19.793,19.793,0,0,0,8.559-7.991,22.017,22.017,0,0,0,2.867-8.349c.02-.222.043-.443.074-.661l.035-.164c.035-.1.074-.206.117-.311l.078-.144.089-.14.1-.132.109-.124.121-.113.132-.1.136-.093.148-.078.152-.062.156-.055.164-.039.163-.027.163-.012Zm-36.176,4.75.015,0,.027-.016Z" transform="translate(577.943 -243.194)"/></g><g transform="translate(1023.004 2730.014)"><path class="a" d="M-539.324,221.64c5.513,0,12.616-.066,17.514,2.766a11.768,11.768,0,0,1,1.42,1.015l.128.113.07.054.253.233.062.058.062.058c.3.3.6.611.868.938l.051.07c.179.214.346.44.506.669s.307.467.447.708q.146.257.28.514a10.61,10.61,0,0,1,1.011,3.3c0,.082.012.163.023.249a9.9,9.9,0,0,1,.023,1.074c-.012.253-.031.5-.062.751a9,9,0,0,1-.265,1.237c-.055.163-.109.323-.163.486s-.129.323-.2.479l-.152.315-.043.074c-.066.132-.136.261-.21.389-.051.074-.1.148-.14.226-.1.148-.2.3-.3.44-.148.191-.3.377-.459.56-.206.233-.428.447-.653.661-.074.058-.144.121-.214.183-.1.078-.2.159-.3.241-.183.136-.37.265-.552.4l-.086.051-.082.058a2.96,2.96,0,0,1-.268.152l-.2.082-.21.062-.218.039-.218.012-.218-.012-.218-.035-.206-.062-.206-.082-.191-.1-.179-.128-.163-.144-.144-.163-.132-.179-.105-.187-.082-.206-.062-.21-.039-.214-.012-.218.012-.222.035-.218.062-.206.082-.2.109-.195.125-.179.144-.159.163-.148.179-.128c.054-.031.109-.066.159-.1l.047-.035c.066-.043.125-.086.187-.132l.09-.066.086-.07.043-.035.082-.07a1.705,1.705,0,0,0,.156-.14l.039-.031c.035-.035.07-.07.1-.109s.093-.093.136-.14l.027-.039c.062-.07.125-.144.183-.222a1.236,1.236,0,0,1,.105-.144l.027-.039.02-.039.078-.109.043-.078.086-.152.015-.039.023-.035c.035-.082.07-.159.105-.241l.015-.035c.047-.121.086-.241.121-.366l.016-.039.031-.125.008-.043.023-.086.051-.3,0-.086.008-.043.019-.222v-.086l0-.047V233l0-.047V232.9l-.023-.28,0-.043,0-.043c-.016-.109-.035-.218-.051-.327-.012-.047-.023-.093-.031-.14l-.031-.144-.016-.047c-.027-.128-.066-.253-.1-.381l-.02-.047-.012-.043-.02-.047a5.013,5.013,0,0,0-.21-.521l-.019-.047-.023-.047-.023-.047-.023-.047-.07-.14-.027-.043c-.043-.082-.082-.156-.128-.23l-.027-.047-.027-.043-.027-.051c-.043-.058-.082-.121-.117-.179l-.031-.043c-.031-.047-.062-.089-.093-.132l-.027-.047-.035-.039a1.615,1.615,0,0,0-.093-.132,1.122,1.122,0,0,1-.105-.132l-.035-.043-.035-.043a6.265,6.265,0,0,0-.607-.638l-.039-.039c-.07-.062-.14-.125-.21-.183l-.043-.039c-.117-.1-.233-.191-.354-.276l-.047-.035a5.461,5.461,0,0,0-.471-.311c-.082-.054-.163-.1-.245-.148l-.051-.027-.05-.027-.051-.023-.051-.031c-.136-.066-.276-.132-.417-.195l-.373-.152-.058-.019-.055-.019c-.109-.039-.221-.074-.334-.109l-.117-.027c-14.425-3.591-37.58-2.369-49.827,5.143-.148.1-.3.195-.443.288a1.226,1.226,0,0,1-.144.1l-.047.035c-.222.152-.436.315-.642.482l-.089.07-.043.039-.047.035-.043.035-.043.035c-.125.109-.249.218-.373.331l-.039.039-.043.039c-.093.086-.183.175-.272.265l-.035.043-.043.035c-.1.1-.191.206-.288.315-.043.054-.089.105-.136.156a8.523,8.523,0,0,0-.7.965l-.051.082-.027.047-.027.047c-.051.086-.1.171-.144.261l-.023.043c-.023.047-.043.09-.07.136l-.062.136-.02.047a2.489,2.489,0,0,0-.117.276l-.023.047-.054.14-.012.047-.019.047-.012.051-.011.023,0,.016-.008.023,0,.012-.008.019-.012.039,0,.019,0,.023,0,.012,0,.019-.008.02-.02.1v.016l0,.012,0,.023,0,.012v.012l0,.016v.016l0,.012v.019l0,.016v.023l0,.008v.043l0,.016v.089l0,.012v.047l0,.012v.023l0,.008v.019l0,.016v.008l0,.008v.012l0,.008,0,.012v.008l0,.012v.016l0,.012v.012l.016.043v.008l.008.016,0,.012.008.016v.012l0,.012.008.023.02.035h0l0,.012.008.012.016.035v0l.008.012.012.016,0,.012.008.012v.008l.016.023.016.023.008.008.008.016.039.058.019.023.058.078.043.051.023.027.023.027.023.023.027.031.027.023.027.031.031.031.027.023.031.031.035.027.031.031.183.148c.128.093.26.187.393.276l.051.027c.051.035.1.066.156.1l.05.027.109.066a21.184,21.184,0,0,0,4.307,1.509c13.095,2.98,26.944,1.354,40.2.945l.218.035.21.058.2.078.194.105.179.121.168.144.148.16.128.179.113.191.085.2.062.21.043.214.015.218-.008.222-.035.214-.058.214-.078.2-.105.195-.121.183-.144.163-.16.148-.175.132-.191.105-.2.089-.21.062-.214.043-.218.016h-.039c-13.589.774-28.4,2.163-41.789-1.26-.762-.2-1.521-.44-2.264-.7a11.1,11.1,0,0,1-4.225-2.517,6.191,6.191,0,0,1-.615-.739l-.023-.043-.027-.039-.078-.109-.023-.043-.027-.035c-.047-.086-.093-.167-.14-.249l-.066-.121-.02-.047-.023-.039a1.4,1.4,0,0,0-.082-.171l-.016-.039-.039-.089-.031-.086-.02-.039-.015-.054a1.8,1.8,0,0,1-.062-.175l-.02-.047-.011-.047-.012-.043a4.645,4.645,0,0,1-.125-.51l-.008-.051-.011-.047-.012-.093-.019-.148-.008-.089-.008-.047-.012-.152v-.14l0-.051v-.237l0-.1v-.047l.019-.249.012-.09c.02-.144.043-.292.066-.436.02-.082.039-.163.055-.245l.027-.09.008-.054.016-.039.012-.051.015-.051.012-.043.027-.1.019-.047a11.452,11.452,0,0,1,.51-1.264l.035-.07.031-.07c.144-.28.292-.552.451-.821.2-.327.416-.642.646-.953.078-.1.156-.195.23-.3l.051-.058a14.356,14.356,0,0,1,1.957-1.965l.062-.047.054-.047c.156-.124.311-.249.467-.37.436-.327.895-.618,1.342-.922a25.822,25.822,0,0,1,4.264-2.1C-562.724,222.722-550.536,221.64-539.324,221.64Z" transform="translate(583.549 -221.64)"/></g></g></svg>