<svg xmlns="http://www.w3.org/2000/svg" width="139.751" height="178.517" viewBox="0 0 139.751 178.517"><defs><style>.a{fill:none;}.a,.b{stroke:#251c16;stroke-linecap:round;stroke-width:4px;}.b{fill:#fff;}.c{font-size:19px;font-family:D3-Radicalism, D3 Radicalism;}</style></defs><g transform="matrix(0.999, -0.035, 0.035, 0.999, -1748.648, -696.175)"><path class="a" d="M1784.785,830.477s3.547,17.482-3.548,27.616c0,0-5.827,10.641-20.523,10.641s-21.392-7.05-24.07-13.935c-3.547-9.121-2.787-23.816-2.787-23.816" transform="translate(1.485 7.944)"/><path class="a" d="M1734.7,848s-6.334.507-5.828-5.828,5.574-5.574,5.574-5.574" transform="translate(0.897 8.668)"/><path class="a" d="M1780.059,836.575s6.334-.507,5.827,5.828-5.574,5.574-5.574,5.574" transform="translate(6.983 8.668)"/><path class="a" d="M1773.094,864.434s14.949,2.026,22.3,14.441,5.574,42.565,5.574,42.565-50.419.254-79.051-.253c0,0-4.053-38.258,8.615-46.873s11.908-9.121,20.269-10.387c0,0-1.521,12.668,9.628,13.174s11.655-12.162,11.909-14.695" transform="translate(0 11.739)"/><path class="a" d="M1729.548,873.05s9.121,4.814,9.882,11.148,1.773,22.8.76,35.218" transform="translate(0.981 13.003)"/><path class="a" d="M1785.146,873.73s-9.628,3.04-9.628,16.215.253,30.149.253,30.149" transform="translate(6.444 13.084)"/><path class="a" d="M1742,835.394a23.132,23.132,0,0,1,7.347-1.52" transform="translate(2.461 8.348)"/><path class="a" d="M1764.648,832.968s6.588.76,7.348,3.547" transform="translate(5.152 8.24)"/><path class="a" d="M1754.008,845.876s-.507,4.308,3.04,4.054,3.8-4.054,3.8-4.054" transform="translate(3.884 9.774)"/><path class="a" d="M1750.834,852.669s5.321,7.854,13.935,0" transform="translate(3.51 10.581)"/><circle class="a" cx="1.013" cy="1.013" r="1.013" transform="translate(1748.771 846.782)"/><circle class="a" cx="1.267" cy="1.267" r="1.267" transform="translate(1771.067 846.782)"/><circle class="b" cx="24.115" cy="24.115" r="24.115" transform="translate(1799.372 797.226)"/><text class="c" transform="translate(1807.909 829.598)"><tspan x="0" y="0">0:01</tspan></text><g transform="translate(1729.334 805.419)"><path class="a" d="M1772.714,823.69s-38.705,14.471-44.234-17.991c0,0,11.454,8.6,23.7-1.956,0,0,13.428-9,20.932,5.476Z" transform="translate(-1728.48 -800.98)"/><path class="a" d="M1768.411,808.387s12.807-3.211,12.807,8.454v16.526s-13.2,1.062-13.2-10.509" transform="translate(-1723.781 -800.148)"/><path class="a" d="M1745.988,824.236s0,8.823-12.056,8.564V816.969" transform="translate(-1727.832 -799.08)"/></g><path class="a" d="M1791.292,789.987a32.959,32.959,0,0,1,46.611,0" transform="translate(8.318 1.985)"/><path class="a" d="M1779.488,778.754a51.637,51.637,0,0,1,73.024,0" transform="translate(6.916)"/></g></svg>