<svg xmlns="http://www.w3.org/2000/svg" width="94.893" height="105.289" viewBox="0 0 94.893 105.289"><defs><style>.a{fill:#ecd684;}</style></defs><g transform="translate(-7080.089 2999.477)"><g transform="translate(7098.729 -2979.821)"><path class="a" d="M395.217,59.45c9.3.026,19.458,3.49,25.355,11.063a21.758,21.758,0,0,1,3.071,5.416c2.159,5.608,2.037,12.165.951,17.935a31.7,31.7,0,0,1-5.547,13.07c-4.6,6.24-11.1,11.1-14.447,18.252l-.015.031c-.02.044-.039.09-.059.135-1.915,4.439-1,9.549-2.854,14.023-.024.05-.046.1-.068.157l-.02.039c-.017.039-.037.081-.052.12l-.111.236c-.085.168-.173.339-.262.5q-.164.289-.341.57a11.1,11.1,0,0,1-1.877,2.144l-.037.031c-.061.052-.125.1-.188.155a11.162,11.162,0,0,1-2,1.265c-.1.048-.214.094-.323.133l-.035.015-.037.011-.035.015c-.16.05-.317.1-.481.138l-.039.009a4.753,4.753,0,0,1-.527.1l-.035.007c-.1.011-.2.026-.306.033a9.055,9.055,0,0,1-1.062.022c-.048,0-.1-.007-.149-.011h-.037l-.223-.02-.035,0c-.109-.009-.216-.022-.326-.042l-.035-.007c-.107-.015-.212-.035-.317-.059l-.037-.007a7.8,7.8,0,0,1-4.4-2.791c-2.99-3.943-2.037-9.4-2.69-13.97v0l0-.009-.007-.031-.009-.026a26.964,26.964,0,0,0-1.272-3.449l-.007-.013-.013-.026-.007-.009,0-.009,0-.011-.013-.02a155.688,155.688,0,0,0-9.457-15.874h0c-7.28-10.222-10.3-24.07-4.972-35.751a20.933,20.933,0,0,1,1.589-2.723,24.76,24.76,0,0,1,13.107-9.195A35.206,35.206,0,0,1,395.217,59.45Zm-.275,2.194c-7.3.017-15.109,2.308-20.162,7.833a22.014,22.014,0,0,0-5.127,11.47,29.549,29.549,0,0,0-.345,3.565c-.533,14.871,10.108,26.572,16.814,38.916l.015.024,0,0a22.743,22.743,0,0,1,1.58,4.207l0,.028.011.052,0,.028.007.028c.5,3.35.157,6.8.957,10.108.057.221.118.439.186.656s.151.441.238.658l.015.042a7.81,7.81,0,0,0,.4.828l.125.21a6.044,6.044,0,0,0,.492.68l.026.028.026.033c.026.028.052.057.079.087.046.048.092.1.135.146.039.035.076.072.114.111l.177.162.031.026c.136.116.275.225.42.326l.175.118.184.111a6.5,6.5,0,0,0,1.228.549l.048.013.02.007.018.007.02.007.059.015.02.007q.144.036.288.066l.022,0,.024,0,.026,0,.024,0,.024,0,.024.007c.024,0,.05.007.074.011l.205.026h.026l.026,0h.026l.026,0h.026l.026,0,.052,0,.028,0,.026,0,.026,0H394l.081,0h.083l.026,0,.057,0,.024,0,.109,0,.026,0,.055,0,.026,0h.026l.028,0h.028l.052,0,.024,0,.026,0,.028,0,.129-.013.052-.009.026,0,.05-.007.024,0,.1-.017a.709.709,0,0,1,.094-.017l.024-.007.024,0c.087-.022.177-.044.264-.068l.02-.009.039-.011.02-.009.057-.02.037-.015.017,0,.035-.015.015-.007.1-.046.039-.02.039-.02c.063-.035.127-.068.192-.1l.037-.022.151-.083c.247-.144.487-.3.721-.466l.031-.024c.1-.068.188-.138.28-.21.129-.1.254-.208.376-.317.072-.063.142-.131.212-.2l.026-.024c.12-.118.236-.24.345-.367.157-.175.3-.356.444-.544l.018-.031a.774.774,0,0,0,.061-.085l.022-.028.017-.026.042-.059c.017-.028.037-.059.057-.085a.857.857,0,0,1,.057-.087c.048-.081.1-.16.146-.238a9.447,9.447,0,0,0,.459-.9c.044-.1.085-.195.122-.3l.015-.031c1.63-4.314.929-9.133,2.614-13.439.079-.223.179-.439.278-.654l.02-.039c5.02-10.617,16.234-16.693,19.279-28.43a34,34,0,0,0,.2-17.5,21.554,21.554,0,0,0-10.344-12.4A33.938,33.938,0,0,0,394.942,61.644Z" transform="translate(-367.109 -59.45)"/></g><g transform="translate(7110.349 -2960.815)"><path class="a" d="M387.054,68.784h.033l.173.007.028,0h.031l.028,0h.028l.118.013.026.007.061,0c.087.015.177.033.264.046l.028.007.031,0c.1.022.192.048.289.07.07.02.138.042.205.059.122.042.243.083.363.127l.039.015c.17.07.339.142.5.225.039.017.079.035.118.055l.035.022.037.017.223.125c.171.1.337.208.5.319a8.718,8.718,0,0,1,1.018.837l.243.24c.125.133.247.267.369.4a10.017,10.017,0,0,1,2.177-1.932,8.557,8.557,0,0,1,3.512-1.281,7.436,7.436,0,0,1,.765-.037l.068,0h.033a2.211,2.211,0,0,1,.269.011h.035c.192.022.38.037.573.063.033.007.066.013.1.017l.033.007a6.911,6.911,0,0,1,1.569.472,7.152,7.152,0,0,1,.645.328l.033.018c.066.037.129.074.192.114.17.1.337.216.5.334.05.037.1.076.153.116a8.382,8.382,0,0,1,.75.645,11.044,11.044,0,0,1,2.592,3.84,11.656,11.656,0,0,1,.448,1.5c1.956,9.339-7.527,17.513-10.281,25.357l-.017.046c-.094.3-.184.6-.258.9l-.037.118-.048.111-.061.107-.072.1-.085.092-.092.079-.1.07-.107.059-.116.044-.118.035-.122.017-.122,0-.122-.009-.12-.022-.118-.035-.114-.05-.107-.061-.1-.074-.09-.081-.081-.094-.07-.1-.059-.107L393.63,102l-.031-.118-.02-.122-.007-.122.009-.122c1.932-8.34,10.244-14.447,10.736-23.219a8.208,8.208,0,0,0-2.144-5.978c-.157-.173-.319-.343-.487-.507-.083-.072-.164-.149-.247-.219l-.022-.02c-.151-.129-.308-.247-.47-.363a.618.618,0,0,1-.068-.046c-.059-.037-.118-.079-.179-.114l-.044-.028c-.074-.042-.149-.085-.225-.127l-.068-.035c-.046-.022-.09-.044-.136-.068s-.1-.048-.155-.07l-.022-.011a1.026,1.026,0,0,1-.114-.046c-.14-.055-.284-.1-.428-.146l-.022,0-.046-.015-.046-.011c-.074-.02-.149-.037-.225-.052l-.022,0-.046-.009-.024,0-.022,0-.046-.007-.022-.007c-.059-.007-.12-.017-.181-.024l-.022,0-.022,0-.024,0-.046-.007-.066,0-.024,0-.114-.007h-.022l-.068,0h-.024l-.022,0h-.136a5.926,5.926,0,0,0-1.093.133c-.092.022-.181.046-.273.072l-.044.015-.046.011c-.031.011-.061.022-.092.031-.181.066-.361.133-.538.208l-.09.039-.09.042a7.675,7.675,0,0,0-2.8,2.391l.007.015a10.579,10.579,0,0,1,.7,1.567l.011.039.015.039c.013.039.024.079.039.116a10.026,10.026,0,0,1,.406,2.061,9.189,9.189,0,0,1-.168,2.048,6.8,6.8,0,0,1-.391,1.322c-.033.077-.068.155-.1.232-.048.094-.1.188-.151.28l-.031.048-.015.026-.048.074-.015.022-.017.028a3.083,3.083,0,0,1-.466.533c-.05.044-.1.085-.155.125l-.026.017c-.052.042-.109.076-.166.114a2.437,2.437,0,0,1-.382.179c-.068.024-.135.046-.205.066-.111.022-.219.042-.33.055l-.111.009a1.807,1.807,0,0,1-.188,0l-.035,0-.076,0-.109-.013-.074-.011-.037-.009-.044-.007c-.055-.011-.109-.024-.162-.039l-.122-.039c-.079-.028-.155-.063-.232-.1s-.122-.066-.184-.1l-.07-.046a2.958,2.958,0,0,1-.365-.319l-.052-.059c-.048-.059-.094-.12-.138-.181l-.044-.066-.074-.127a2.158,2.158,0,0,1-.112-.225l-.015-.031-.063-.162-.072-.229-.007-.035-.011-.031-.015-.066c-.007-.033-.013-.066-.022-.1-.011-.066-.024-.131-.037-.2,0-.046-.011-.09-.018-.131l-.009-.066-.011-.1,0-.031-.015-.2v-.033l0-.033v-.035l0-.033c0-.109,0-.216,0-.326a15.257,15.257,0,0,1,1.008-4.874,1.337,1.337,0,0,0,.052-.129c.125-.273.245-.546.382-.813v0c-.1-.14-.212-.278-.326-.411l-.022-.026c-.087-.1-.177-.2-.267-.3-.077-.079-.153-.155-.232-.232l-.024-.022-.022-.022c-.063-.057-.127-.116-.192-.17l-.024-.024c-.039-.033-.081-.068-.12-.1l-.219-.17-.028-.017-.074-.057-.1-.068-.024-.018-.026-.015c-.059-.039-.118-.076-.177-.114l-.149-.087-.028-.013-.024-.015-.026-.011a1.374,1.374,0,0,0-.127-.066l-.026-.015a.82.82,0,0,1-.076-.037,3.55,3.55,0,0,0-.356-.142l-.026-.011-.026-.009-.024-.007-.1-.033-.024-.007-.026-.009-.076-.022-.048-.009-.017-.007-.1-.02-.015,0-.033-.007h-.015l-.015,0-.015,0-.013,0-.046,0-.017,0-.074-.007h-.013l-.031,0H387.1l-.026,0h-.087l-.013,0-.07,0-.013,0h-.042l-.011,0h-.013l-.018,0H386.8l-.011,0h-.02l-.011,0h-.013l-.133.022-.024,0-.026,0-.079.02-.024.007-.026.007-.1.031-.129.048-.1.044-.026.013-.024.011-.129.068c-.059.035-.118.072-.177.109l-.024.018-.028.017a4.441,4.441,0,0,0-.5.426l-.024.026a5.7,5.7,0,0,0-.413.476l-.024.033-.072.092c-.07.1-.138.2-.206.3-.052.081-.1.162-.153.245h0c.114.2.223.406.323.614a9.523,9.523,0,0,1,.441,7.129l-.011.026c-.015.031-.031.063-.046.1l-.026.05-.011.022-.024.046-.013.022-.017.028-.013.024-.013.024-.044.07-.018.022-.013.024-.015.024-.02.026a1.8,1.8,0,0,1-.135.177l-.02.026c-.048.052-.1.1-.146.155l-.063.061-.07.057-.02.02-.026.022a2.667,2.667,0,0,1-.428.271c-.05.024-.1.046-.149.068a2.4,2.4,0,0,1-.708.164c-.068,0-.135,0-.2,0l-.031,0-.138-.013-.033,0-.033,0c-.09-.013-.177-.037-.267-.059-.052-.017-.1-.035-.153-.055l-.092-.039a1.848,1.848,0,0,1-.4-.249l-.024-.017a2.206,2.206,0,0,1-.356-.372l-.02-.022-.094-.133-.013-.024-.013-.017-.028-.048L381.1,81.2a5.923,5.923,0,0,1-.621-3.187,13.262,13.262,0,0,1,.463-2.614,21.63,21.63,0,0,1,.8-2.238,5.287,5.287,0,0,0-.809-.785l-.033-.024a4.2,4.2,0,0,0-.544-.352l-.033-.015-.033-.017c-.085-.042-.17-.081-.258-.118-.033-.011-.066-.024-.1-.037l-.063-.02-.031-.013-.066-.02-.031-.011c-.046-.011-.1-.024-.144-.037l-.081-.015-.013,0-.015,0-.048-.009-.028,0-.035-.007-.061-.007-.017,0-.046,0h-.013l-.066-.007h-.044l-.015,0h-.033l-.018,0-.138,0-.015,0h-.033l-.015,0h-.013l-.033,0h-.015l-.14.02-.015,0-.05.007-.013,0-.031.009-.013,0-.035.007-.013,0-.048.013-.02,0-.013,0-.015.007-.017,0-.015,0-.015,0-.015.007-.017,0-.013,0-.02.007-.1.037-.013,0-.017.009-.015.007-.05.02-.015.009-.018,0-.015.011-.015.007-.015.007L378,71.9l-.035.015-.015.009-.018.009-.015.009c-.028.013-.055.028-.083.044L377.82,72l-.018.011-.015.009-.018.009-.068.044-.087.055-.1.074-.015.013-.017.011-.035.028-.037.026-.083.068-.017.017-.022.015-.017.017-.015.013-.055.046-.052.05-.018.015a.71.71,0,0,1-.072.068c-.042.044-.085.087-.125.131l-.02.017a4.682,4.682,0,0,0-.343.407l-.018.02c-.125.166-.245.334-.361.507-.164.251-.317.507-.459.769-.107.208-.205.417-.3.629a10.872,10.872,0,0,0-.717,3.556,12.4,12.4,0,0,0,.026,1.366,12.871,12.871,0,0,0,.643,3.093c2.216,6.5,8.03,10.974,11.114,16.988a12.39,12.39,0,0,1,1.372,5.407l-.007.125-.02.12-.035.118-.046.114-.059.107-.072.1-.081.092-.092.083-.1.072-.107.057-.114.048-.118.035-.122.022-.122.007-.122-.007-.12-.022-.12-.033-.112-.046-.109-.061-.1-.07-.092-.081-.081-.092-.072-.1-.061-.107-.048-.116-.033-.116-.02-.122c-.007-.293-.02-.584-.042-.876a11.237,11.237,0,0,0-1.32-4.1c-.21-.4-.431-.782-.662-1.165-4.507-7.225-14.215-15.231-10.336-25.038a10.742,10.742,0,0,1,1.735-2.907l.024-.033.151-.17.028-.026c.114-.127.236-.251.361-.369l.026-.026c.087-.079.177-.157.267-.234L376,70.6l.026-.022c.037-.028.074-.057.109-.085a5.7,5.7,0,0,1,1.272-.719c.081-.031.16-.059.238-.085l.061-.02.031-.009.028-.009.031-.009c.05-.015.1-.031.151-.042.1-.026.2-.048.306-.068l.031,0,.028-.007.031,0q.092-.016.184-.026l.028,0,.033,0,.031,0,.153-.011h.028l.061-.007.212,0h.059l.061,0h.031a1.109,1.109,0,0,0,.12.007l.033,0,.026,0,.028,0,.031,0c.07.007.14.015.21.024l.057.007c.087.018.175.031.262.05l.031,0,.083.02.028,0c.1.024.19.052.286.079a6.5,6.5,0,0,1,2.448,1.484l.024.026,0,0c.042-.057.081-.114.127-.166l.031-.046a5.946,5.946,0,0,1,2.275-1.838l.052-.02.046-.022a5.028,5.028,0,0,1,.874-.24l.138-.022.028,0,.026,0,.031,0,.028,0,.168-.013h.028l.028,0,.057,0,.026,0,.087,0,.028,0Zm4.817,7.151a11.9,11.9,0,0,0-.553,3.455l0,.02v.039l0,.022v.02l0,.042v.017c.007.061.015.122.022.184l0,.018,0,.033,0,.015,0,.031.009.044,0,.013,0,.013.009.028,0,.011.015.046V80l0,.007.009.024,0,.007,0,.007,0,.011,0,.007,0,.009,0,.011,0,0,0,.007,0,.007,0,.007.007,0h0l0,0,0,0,0,0,0,0,.007-.007,0,0,0,0,0,0,.011-.013.007-.007.015-.017,0,0,0,0,.007-.009,0-.007.009-.007.007-.011.009-.011.015-.024.009-.011.017-.028.031-.05.007-.013,0-.007.026-.052,0-.009.013-.026.02-.039a3.047,3.047,0,0,0,.175-.479l.013-.035c.011-.05.024-.1.039-.149.035-.14.066-.282.087-.426l.009-.037.013-.079c.024-.155.044-.31.059-.463l.017-.219,0-.037a.814.814,0,0,0,0-.1c0-.042.007-.085.009-.127l0-.033,0-.057v-.059l0-.026,0-.12,0-.022,0-.039,0-.02v-.015c-.007-.05-.011-.1-.013-.153l0-.024,0-.028,0-.028,0-.026-.031-.2,0-.028,0-.031-.007-.028,0-.031c-.007-.026-.011-.055-.015-.083l-.009-.028-.024-.118a.715.715,0,0,1-.02-.087c-.024-.09-.048-.179-.07-.271l-.011-.028-.007-.028-.02-.061h0Zm-8.775-.07c-.009.026-.015.055-.022.081a11.494,11.494,0,0,0-.389,2.035l0,.028,0,.063,0,.035c0,.157,0,.31,0,.468l0,.028,0,.028,0,.031v.028l.009.12,0,.031,0,.028.007.061,0,.033,0,.059.018.125,0,.031,0,.028c.009.061.02.122.031.181s.026.133.042.2l.013.052.037.125.007.024c.015.05.035.1.055.149l.024.052,0,.015.009.018,0,0,0-.007,0,0,0-.007,0,0,.007-.009,0,0,0,0,0,0,0,0,0-.009,0,0,.007-.007,0,0,0-.009.007,0v0l0-.007.007-.011,0-.007.007-.009,0-.009,0,0,.013-.026,0-.009,0-.007,0-.011,0-.007.017-.042.024-.063.007-.024.009-.022c.009-.033.02-.066.031-.1l.033-.138a.654.654,0,0,1,.02-.09l.009-.061.007-.031c.028-.179.05-.361.061-.542.013-.155.013-.31.018-.468a9.495,9.495,0,0,0-.173-2.266l-.013-.044-.02-.09Z" transform="translate(-372.426 -68.146)"/></g><g transform="translate(7116.857 -2913.906)"><path class="a" d="M393.219,89.616l.083.011.083.018.081.026.076.031.076.037.072.042.07.048.066.052.061.057.057.063.052.066.044.07.042.074.035.076.028.077.024.083.017.081c.007.057.011.111.015.168l0,.085-.011.081-.015.083a1.392,1.392,0,0,1-.048.162c-.061.14-.118.282-.186.42l-.02.042c-.035.068-.07.136-.107.2l-.024.037-.02.042-.094.155a5.988,5.988,0,0,1-.481.647c-.068.076-.138.153-.21.227a6.785,6.785,0,0,1-1.626,1.2,8.785,8.785,0,0,1-.973.433l-.385.133-.042.011a16.909,16.909,0,0,1-13.035-1.5q-.18-.118-.348-.249l-.026-.017a4.452,4.452,0,0,1-.581-.549,3.453,3.453,0,0,1-.33-.485l-.013-.028-.018-.031-.041-.092-.015-.035-.026-.066-.022-.063-.042-.135-.017-.074-.015-.07-.011-.072-.009-.066-.007-.085v-.083l0-.085.013-.081.02-.083.026-.079.031-.081.037-.074.042-.072.048-.07.055-.063a1.5,1.5,0,0,1,.12-.116l.068-.052.07-.046.074-.039.076-.035.079-.028.081-.022.083-.015.083-.011.083,0,.085,0,.083.009.083.015.081.022.079.028.079.035q.072.039.144.085l.066.052a1.516,1.516,0,0,1,.122.114c.035.044.07.09.1.136l.044.07.037.076.031.079.026.081.02.081.009.055,0,.007h0l0,0,.007.009,0,0,0,0v0l.007.011,0,0,.011.017.007.009,0,0,.013.015,0,0,.009.011.013.015.007.007.009.009.035.035.009.011.011.009.011.011.02.015.011.013.011.009.011.011.015.011.009.009.015.011.011.011.013.011.015.011.028.022.028.02.015.013.079.057.07.046.111.074.022.009.039.026c.109.063.219.125.332.184a15.764,15.764,0,0,0,10.233,1.1l.1-.031.037-.009.033-.011c.081-.022.162-.046.24-.07l.033-.011a.8.8,0,0,0,.1-.033c.109-.037.214-.079.323-.116l.063-.026.028-.013c.042-.015.083-.033.125-.05l.031-.013.028-.015.031-.011.028-.015.118-.052.028-.015.057-.028.028-.013c.037-.022.076-.042.114-.059l.186-.107.026-.015.026-.015c.033-.024.068-.044.1-.066l.024-.015.026-.015c.039-.028.079-.057.12-.085s.077-.057.114-.085l.024-.017.02-.017.024-.017a1.379,1.379,0,0,1,.1-.09l.022-.02.022-.017c.092-.085.181-.175.267-.267.018-.022.035-.042.052-.061.035-.039.068-.081.1-.125l.013-.02.048-.063.046-.063.028-.046.015-.022.015-.022.011-.022.015-.02.013-.024.013-.024c.035-.061.07-.122.1-.186l.011-.024.013-.024.009-.026.013-.024.1-.229c.026-.05.055-.1.085-.146l.05-.066.055-.063.061-.061.063-.052.07-.05.072-.044.074-.037.076-.033.081-.024.081-.02.083-.015.083-.007.085,0Z" transform="translate(-375.404 -89.609)"/></g><g transform="translate(7117.69 -2907.404)"><path class="a" d="M376.987,92.588l.081.009.076.017.076.022.076.028.074.033.07.037c.046.031.09.061.131.094l.059.052.059.057.052.061.046.063.044.068c.024.048.048.094.068.144l.028.076.02.077.017.076.009.081h0l0,.007,0,.009,0,0,0,.007,0,.007.007,0,.009.013,0,.007,0,0,.009.009.007.009,0,.007.015.015.007.009.024.022.007.009.028.028.011.011.011.009.02.02.011.009.022.022.035.028.013.013.013.009c.1.079.2.155.31.225.146.094.3.184.448.267a14.3,14.3,0,0,0,7.706,1.5l.035,0c.092-.011.181-.02.273-.033l.033,0,.068-.009a.8.8,0,0,1,.1-.015c.14-.026.282-.05.422-.079l.033-.007.031-.009.031,0a.486.486,0,0,1,.094-.022c.122-.031.243-.063.363-.1l.059-.02.028-.009.2-.068.028-.011.109-.039.028-.013.026-.009c.044-.02.09-.039.133-.057s.1-.046.155-.07l.022-.013.028-.011.048-.024.072-.039c.079-.042.157-.087.234-.133l.022-.015.024-.013.02-.015.024-.013.127-.087.061-.048c.068-.05.131-.1.194-.157a.7.7,0,0,1,.074-.066l.017-.017a.623.623,0,0,1,.055-.052l.015-.02.02-.015c.028-.028.055-.059.081-.09l.017-.02.018-.017.013-.02.033-.037.015-.018.031-.039.059-.079c.017-.026.037-.052.057-.079.037-.055.072-.111.1-.168l.015-.022.05-.09.035-.068.011-.024c.026-.055.052-.111.076-.168l.011-.028c.022-.048.046-.1.072-.142l.044-.07.048-.061.055-.061.057-.055.061-.052a1.26,1.26,0,0,1,.131-.09l.072-.037.074-.033.077-.026c.05-.015.1-.026.153-.037l.081-.009.081,0,.079,0,.081.007c.052.009.1.022.155.035l.079.026.072.031.07.035.072.042.063.046c.042.035.083.07.122.107a1.437,1.437,0,0,1,.1.122l.044.066.039.07.035.072.028.076.024.076.018.077.013.079.007.081c0,.052,0,.107,0,.16l-.011.079-.018.079-.022.076a4.311,4.311,0,0,1-.192.435,5.134,5.134,0,0,1-.477.776l-.026.033-.026.035a5.633,5.633,0,0,1-.85.872l-.033.024-.031.026-.1.076-.168.122a1.1,1.1,0,0,0-.1.072,6.877,6.877,0,0,1-.752.428l-.109.052-.076.035-.153.066-.035.017c-.181.072-.361.14-.546.2a14.163,14.163,0,0,1-12.278-2.14,3.929,3.929,0,0,1-.393-.393l-.018-.017-.076-.1-.1-.144-.046-.074-.018-.024-.015-.028-.018-.026c-.031-.055-.059-.109-.087-.164a2.319,2.319,0,0,1-.1-.243l-.011-.031a2.1,2.1,0,0,1-.079-.369,2.374,2.374,0,0,1-.007-.249l.009-.079.013-.081.017-.079c.018-.05.035-.1.057-.151l.035-.07.041-.07a1.077,1.077,0,0,1,.1-.127c.035-.039.074-.076.114-.114l.061-.05.068-.044.07-.042a1.1,1.1,0,0,1,.146-.063,1.338,1.338,0,0,1,.153-.044l.079-.013.081-.007h.081Zm.992,1.077h0v-.017h0Z" transform="translate(-375.785 -92.584)"/></g><g transform="translate(7126.542 -2999.477)"><path class="a" d="M381.032,50.46l.066.009.066.011.066.017.066.022c.042.015.083.031.125.05.059.033.118.068.173.1.035.028.07.059.1.09l.046.048.046.052.039.052.039.057.033.059.031.059c.017.042.033.083.048.127s.024.087.033.131l.011.066.007.068c.011,3.632.009,7.265.063,10.9l-.007.068c-.007.044-.013.09-.022.133s-.024.085-.039.129l-.024.063-.031.059a1.3,1.3,0,0,1-.07.118l-.037.052-.044.052-.046.05-.05.046-.052.044a1.008,1.008,0,0,1-.112.076c-.039.024-.079.044-.118.063l-.063.024a1.151,1.151,0,0,1-.131.039l-.066.015a1.312,1.312,0,0,1-.133.013h-.066l-.068,0c-.046,0-.09-.011-.135-.017l-.066-.015c-.044-.013-.085-.028-.129-.044l-.061-.026-.061-.031c-.037-.024-.074-.048-.111-.074l-.055-.039-.05-.046-.048-.048-.044-.05-.042-.052-.039-.057c-.024-.037-.046-.076-.068-.116l-.026-.063-.022-.063a1.143,1.143,0,0,1-.037-.131l-.011-.066-.007-.068c-.066-3.643-.068-7.287-.063-10.93l.007-.068.009-.068c.009-.044.022-.087.035-.131l.046-.125.031-.061.072-.116.039-.052.046-.052.046-.048a1.3,1.3,0,0,1,.1-.087l.055-.039.057-.037.061-.033c.039-.017.081-.035.122-.05l.066-.022.066-.015.066-.013.068-.009.068,0h.068Z" transform="translate(-379.835 -50.456)"/></g><g transform="translate(7153.166 -2986.483)"><path class="a" d="M401.118,56.4a1.132,1.132,0,0,1,.173.024c.039.009.076.02.111.031s.074.026.109.042l.052.026c.035.02.068.042.1.061s.063.046.094.07l.044.039.039.042c.026.028.052.057.076.087s.046.063.068.1a1.482,1.482,0,0,1,.079.155l.022.055a.956.956,0,0,1,.033.114,1.53,1.53,0,0,1,.028.173,1.554,1.554,0,0,1,0,.175,1.135,1.135,0,0,1-.015.116l-.013.057a1.481,1.481,0,0,1-.057.166l-.024.052c-.018.035-.037.07-.057.1l-.033.048c-.024.031-.048.061-.072.09l-.042.044c-2.677,2.446-5.361,4.883-8.01,7.359-.031.026-.063.05-.094.072s-.066.042-.1.061l-.109.048-.052.02a1.076,1.076,0,0,1-.111.033l-.059.011a1.29,1.29,0,0,1-.291.011,1.227,1.227,0,0,1-.229-.048l-.107-.039c-.052-.026-.1-.055-.155-.085a1.28,1.28,0,0,1-.138-.107,1.67,1.67,0,0,1-.122-.127l-.066-.1c-.02-.033-.039-.066-.059-.1l-.024-.052a1.072,1.072,0,0,1-.039-.109c-.011-.039-.022-.076-.031-.114-.009-.059-.015-.116-.02-.175a1.185,1.185,0,0,1,.017-.232,1.618,1.618,0,0,1,.044-.17l.02-.055c.015-.035.033-.07.05-.1s.039-.068.061-.1l.035-.046.037-.046c2.66-2.533,5.381-5.016,8.122-7.462l.1-.066.05-.028c.035-.015.072-.033.107-.046l.055-.02.057-.015c.039-.011.077-.017.114-.024A1.079,1.079,0,0,1,401,56.4,1.034,1.034,0,0,1,401.118,56.4Z" transform="translate(-392.017 -56.402)"/></g><g transform="translate(7092.642 -2985.494)"><path class="a" d="M365.5,56.858l.057,0,.059.009a1.024,1.024,0,0,1,.111.026c.055.017.107.037.16.059l.052.026c.033.02.066.039.1.061s.061.044.092.068l.044.039q3.793,3.937,7.608,7.851l.068.094c.028.05.057.1.081.151l.022.055a1.569,1.569,0,0,1,.048.164,1.069,1.069,0,0,1,.017.116l0,.114v.057a1.447,1.447,0,0,1-.024.17l-.013.055a1.089,1.089,0,0,1-.037.111l-.022.052a1.25,1.25,0,0,1-.081.151,1.591,1.591,0,0,1-.1.135l-.042.044-.042.037c-.028.026-.059.048-.09.072s-.063.044-.1.063l-.1.052-.052.022a1.529,1.529,0,0,1-.164.046,1.126,1.126,0,0,1-.114.02c-.039,0-.076,0-.116,0a1.03,1.03,0,0,1-.116-.007c-.037,0-.074-.011-.114-.017s-.072-.02-.109-.031l-.055-.02-.055-.022a1.186,1.186,0,0,1-.2-.116l-.046-.035c-2.616-2.6-5.215-5.245-7.711-7.962l-.059-.1c-.017-.035-.035-.07-.05-.1l-.022-.052-.018-.055-.015-.057c-.009-.037-.015-.074-.022-.111a.989.989,0,0,1-.009-.114c0-.039,0-.076,0-.116q.01-.085.026-.17l.015-.055a1.45,1.45,0,0,1,.061-.162l.026-.052a.869.869,0,0,1,.059-.1.948.948,0,0,1,.07-.094l.037-.042c.026-.028.055-.055.083-.081l.044-.035a.906.906,0,0,1,.094-.066l.05-.028a1.723,1.723,0,0,1,.157-.072l.055-.017.111-.028.114-.015c.037,0,.076,0,.114,0Z" transform="translate(-364.325 -56.854)"/></g><g transform="translate(7162.018 -2952.534)"><path class="a" d="M397.317,71.937c3.578.107,7.156.258,10.731.422l.068.009c.044.011.087.02.131.033l.066.022c.042.015.081.033.122.052s.079.046.116.07.072.052.107.081l.05.048.046.048c.028.035.057.07.083.107l.037.055.033.059.031.061.046.127L409,73.2l.013.068.009.066.007.068,0,.068,0,.068-.007.068q-.01.066-.026.131c-.013.044-.026.085-.041.127l-.059.125a1.7,1.7,0,0,1-.114.166.982.982,0,0,1-.092.1l-.05.046c-.037.028-.072.055-.111.081l-.057.035-.059.031-.061.028c-.063.022-.129.042-.195.059-.044.007-.087.013-.133.017l-.068,0c-3.628-.153-7.258-.317-10.889-.424L397,74.116c-.044-.009-.087-.017-.131-.028s-.085-.028-.129-.046l-.061-.026c-.039-.022-.079-.044-.116-.068l-.057-.039-.052-.042-.048-.046-.048-.048-.046-.05-.039-.055a1.256,1.256,0,0,1-.072-.116l-.031-.059c-.017-.042-.033-.083-.05-.125s-.024-.087-.033-.131l-.011-.068,0-.066,0-.068,0-.068,0-.068c.007-.046.015-.09.024-.133l.017-.066c.015-.044.033-.085.05-.127l.028-.059.035-.059.035-.057q.043-.056.085-.1l.048-.048.05-.046.052-.044.052-.039.059-.037.059-.031q.062-.03.125-.052l.063-.022.066-.015a.9.9,0,0,1,.133-.022l.068,0C397.188,71.935,397.254,71.935,397.317,71.937Z" transform="translate(-396.067 -71.935)"/></g><g transform="translate(7080.089 -2954.328)"><path class="a" d="M370.556,71.118l.131.02.068.017c.042.013.085.028.127.044s.081.039.12.061.076.048.114.074l.052.044.05.046.048.048.044.05.039.055a.881.881,0,0,1,.07.114c.022.042.042.081.059.122l.022.063.018.066.015.066.009.068.007.068,0,.068,0,.068c0,.044-.009.09-.015.133l-.015.066-.018.066c-.015.042-.031.085-.048.127s-.042.079-.066.118-.05.074-.079.111a1.263,1.263,0,0,1-.09.1l-.05.046-.052.042c-.037.026-.074.052-.114.076s-.079.042-.12.059l-.063.024-.063.02-.066.017-.068.013-.066.009c-3.643.114-7.287.164-10.93.208l-.068-.007-.068-.009c-.044-.009-.087-.017-.131-.031l-.127-.046-.061-.031c-.039-.022-.076-.046-.116-.07L359,73.28l-.052-.044-.048-.046c-.031-.033-.061-.066-.09-.1l-.039-.055-.037-.057-.033-.059c-.02-.042-.037-.083-.055-.125l-.022-.063-.015-.066L358.6,72.6l-.011-.068,0-.068V72.4l0-.068.007-.066.011-.066c.011-.044.022-.087.035-.131l.05-.127c.033-.059.068-.118.1-.173.026-.037.057-.07.085-.1l.048-.046.052-.046.052-.042.057-.039.057-.035.059-.031c.042-.017.085-.035.127-.05s.087-.024.131-.035l.066-.011.068-.007c3.63-.059,7.263-.107,10.9-.208Z" transform="translate(-358.581 -71.114)"/></g></g></svg>