<svg xmlns="http://www.w3.org/2000/svg" width="86.385" height="95.887" viewBox="0 0 86.385 95.887"><defs><style>.a{fill:#ecd684;}</style></defs><g transform="translate(-6923.467 3004.065)"><g transform="translate(6962.096 -2951.502)"><path class="a" d="M342.527,72.407c2.953,0,7.42.181,9.566,2.57l.052.07c.028.044.055.087.079.133a1.184,1.184,0,0,1,.109.332c.007.046.013.092.015.138v.09a1.508,1.508,0,0,1-.037.245c-.022.072-.048.142-.077.212-.028.05-.055.1-.085.149s-.092.116-.14.173l-.026.022-.013.018-.057.05a2.915,2.915,0,0,1-.739.411A84.221,84.221,0,0,0,321.784,96.44c-4.778,4.767-10.056,10.266-13.354,16.162a9.064,9.064,0,0,0-.92,1.947,1.08,1.08,0,0,1,0,.205l0,.017,0,.02c-.009.033-.013.066-.02.1l-.007.017,0,.02c-.011.031-.022.061-.031.094l-.009.018,0,.017-.042.09-.011.018-.009.015-.028.042-.026.044-.011.015-.011.015c-.022.024-.044.05-.063.077l-.015.013-.013.015c-.024.02-.048.044-.072.068l-.028.022c-.028.02-.055.039-.081.061l-.017.009-.1.057-.035.017a.707.707,0,0,0-.094.037l-.017,0-.017.007-.1.024-.02,0-.02,0-.1.011h-.02l-.017,0h-.1l-.044,0h0l-.1-.013-.094-.022,0,0a.728.728,0,0,1-.138-.046h0l-.094-.046-.087-.055h0a1.215,1.215,0,0,1-.118-.092l-.076-.072c-.033-.037-.063-.074-.094-.111s-.061-.1-.092-.155l0,0c-.022-.048-.042-.1-.061-.146s-.028-.1-.039-.151a2.321,2.321,0,0,1-.022-.3l0-.011v0c-.662-5.147-1.375-11.271.518-16.333,3.96-10.6,14.383-18.333,24.341-22.739A30.419,30.419,0,0,1,342.527,72.407Zm-.114,2.192c-9.986,0-20.328,6.622-27.044,13.356-3.366,3.372-6.981,8.008-8.071,12.834-.7,3.1-.437,6.767-.2,9.824,9.848-14.455,24.782-29.5,41.736-35.087l-.011,0A22.8,22.8,0,0,0,342.414,74.6Z" transform="translate(-304.593 -72.407)"/></g><g transform="translate(6923.467 -2946.64)"><path class="a" d="M301.545,74.632c9.708.033,15.371,6.893,19.622,15.26,3.322,6.544,6.764,14.383,7.451,21.762l0,.018,0,.017,0,.046v.046l-.02.127a1.377,1.377,0,0,1-.081.243l-.009.015,0,.013a.607.607,0,0,0-.046.083l-.011.015-.009.015-.077.1-.033.033-.028.035-.015.013-.011.013-.037.028-.033.031q-.052.039-.1.072l-.015.009-.013.011c-.028.013-.057.028-.083.044l-.033.011,0,0-.083.031,0,0c-.039.013-.079.022-.116.033h0l-.087.013h0l-.035,0c-.044,0-.087,0-.131,0s-.081-.007-.122-.011h-.007l0,0-.074-.011-.044-.013h0l-.068-.02h0a.834.834,0,0,1-.122-.048h0a1.693,1.693,0,0,1-.16-.094v0a1.763,1.763,0,0,1-.14-.114,1.723,1.723,0,0,1-.118-.133,2.4,2.4,0,0,1-.256-.485c-.159-.428-.315-.857-.47-1.287-6.88-11.31-16.112-19.969-28.633-24.6-2.133-.787-9.188-1.473-10.25-4.443a2.8,2.8,0,0,1-.079-.38,2.61,2.61,0,0,1,.267-1.464,3.211,3.211,0,0,1,.225-.385C290.228,75.437,297.366,74.608,301.545,74.632Zm-.24,2.192c-3.628.042-9.059.647-11.859,3.44l-.09.1-.007.009-.052.066-.044.061-.013.02-.007.011-.017.028-.007.009-.007.013,0,0,0,.009-.009.02-.007.009,0,0-.011.02,0,.007,0,.007-.011.031,0,.009,0,.011,0,.007,0,.007,0,.009,0,0-.007.017v0l0,0v.007l.011.009c.09.055.181.109.273.16,4.144,2,8.764,2.83,12.96,4.782a52.327,52.327,0,0,1,22.181,18.724c-2.714-8.845-7.96-24.778-18.717-27.208A20.682,20.682,0,0,0,301.3,76.824Z" transform="translate(-286.919 -74.632)"/></g><g transform="translate(6960.905 -2968.394)"><path class="a" d="M307.151,64.816l.321.284a2.114,2.114,0,0,1,.212.341,9.841,9.841,0,0,1,.529,2.439c2.192,15.92-3.036,32.134-1.51,48.089v0a71.235,71.235,0,0,0,1.46,7.322l0,.009,0,0v0l-.007-.009,0-.009a.767.767,0,0,0-.061-.109l.17.348.026.426-.138.407-.282.321-.385.188-.428.026h0l-.122-.022h0l-.164-.057.009,0-.017-.009.009,0c-.061-.035-.122-.068-.186-.1l-.092-.07a1.151,1.151,0,0,1-.21-.227c-1.37-2.17-1.438-5.674-1.749-8.073-1.532-11.826.951-24.478,1.447-36.335.181-4.336.876-9.171-.221-13.476l0-.015-.007-.013,0-.015,0-.011-.007-.011-.011-.031,0-.011,0,0,0-.007,0,0h0v0l0,0,0,.007,0,0,0,0-.188-.385-.028-.428.14-.4.282-.321.383-.188.428-.028Zm.61,58.044.3.26-.007-.007-.048-.057-.066-.068-.081-.066-.135-.092c-.052-.02-.107-.042-.16-.066l-.149-.037-.059-.009Z" transform="translate(-304.048 -64.678)"/></g><g transform="translate(6954.972 -2987.052)"><path class="a" d="M311.257,56.141a13.6,13.6,0,0,1,8.487,3.663l0,.007a7.654,7.654,0,0,1,2.439,4.076,9.68,9.68,0,0,1-.16,4.577l-.015.05a13.5,13.5,0,0,1-2.666,5.046,12.345,12.345,0,0,1-3.315,2.806c-2.841,1.609-5.65,1.233-8.484-.264-7.33-3.82-8.758-14.368-1.11-18.706A9.731,9.731,0,0,1,311.257,56.141Zm-.135,2.2c-6.019,0-9.584,7.171-6.614,12.174a11.289,11.289,0,0,0,5.98,4.5l.267.087a5.436,5.436,0,0,0,4.131-.61c.3-.166.588-.361.876-.553l.028-.024a7.7,7.7,0,0,0,.71-.568,11.323,11.323,0,0,0,.85-.833l.026-.035a11.7,11.7,0,0,0,1.547-2.162,8.23,8.23,0,0,0,.89-6.716l-.015-.033a5.2,5.2,0,0,0-.487-.951,10.848,10.848,0,0,0-3.877-3.156A9.618,9.618,0,0,0,311.121,58.337Z" transform="translate(-301.334 -56.141)"/></g><g transform="translate(6960.627 -3004.065)"><path class="a" d="M313.146,48.357c4.247.042,9.256,1.565,12.143,4.843,3.379,3.838,1.381,8.2-2.019,11.306-2.6,2.374-6.307,4.675-9.96,4.45a1.349,1.349,0,0,1-.186-.044,1.045,1.045,0,0,1-.476-.31,1.16,1.16,0,0,1-.162-.236l-.039-.087a1.36,1.36,0,0,1-.057-.181,1.4,1.4,0,0,1-.022-.19,1.377,1.377,0,0,1,.009-.19,1.811,1.811,0,0,1,.044-.188l.033-.087.041-.087a1.394,1.394,0,0,1,.107-.162l.061-.072a1.118,1.118,0,0,1,.142-.127,1.384,1.384,0,0,1,.164-.1l.085-.039a1.769,1.769,0,0,1,.184-.055,1.885,1.885,0,0,1,.19-.024c4.019.16,11.739-4.542,11.557-9.241a3.941,3.941,0,0,0-.636-1.958c-2.509-3.851-8.7-5.626-13.046-4.9a7.677,7.677,0,0,0-3.012,1.082c-.1.072-.2.146-.3.225a3.972,3.972,0,0,0-.378.337l-.024.026a3.239,3.239,0,0,0-.219.24,4.892,4.892,0,0,0-.345.476l-.048.09a1.443,1.443,0,0,0-.092.173l-.015.024c-1.364,2.951-.719,6.784.872,9.509a11.858,11.858,0,0,0,2.474,2.957,1.1,1.1,0,0,1,.118.149,1.6,1.6,0,0,1,.094.17,1.216,1.216,0,0,1,.059.179l.02.094.009.094a.939.939,0,0,1,0,.192l-.013.094a1.644,1.644,0,0,1-.055.184,1.219,1.219,0,0,1-.138.251l-.061.074-.066.068a1.892,1.892,0,0,1-.149.12,1.178,1.178,0,0,1-.258.127,1.349,1.349,0,0,1-.186.044l-.1.011a1.142,1.142,0,0,1-.286-.02l-.092-.022-.092-.031a1.289,1.289,0,0,1-.251-.14c-4.745-4.03-7.708-14.683-.634-18.121A11.492,11.492,0,0,1,313.146,48.357Z" transform="translate(-303.922 -48.357)"/></g><g transform="translate(6973.473 -2990.833)"><path class="a" d="M318.482,54.411c4.679.068,10.228,2.31,12.528,6.6a10.129,10.129,0,0,1,.887,2.29,9.811,9.811,0,0,1-2.07,8.849c-2.891,3.25-7.361,3.707-11.415,2.972a16.645,16.645,0,0,1-8.364-3.779,1.461,1.461,0,0,1-.107-.153l-.042-.081a1.547,1.547,0,0,1-.063-.177l-.02-.092-.013-.09a1.361,1.361,0,0,1,0-.188l.011-.092.018-.092a1.648,1.648,0,0,1,.061-.175,1.462,1.462,0,0,1,.087-.164,1.283,1.283,0,0,1,.118-.146,1.073,1.073,0,0,1,.38-.262,1.252,1.252,0,0,1,.175-.057l.092-.015a1.328,1.328,0,0,1,.186-.011,1.5,1.5,0,0,1,.278.044,1.661,1.661,0,0,1,.173.068c.055.031.107.061.16.1a15.777,15.777,0,0,0,11.522,3.44,9.678,9.678,0,0,0,2.341-.575l.035-.017a7.72,7.72,0,0,0,1.536-.828c.131-.094.26-.192.385-.3l.028-.02c.149-.122.293-.249.428-.385l.028-.022a7.72,7.72,0,0,0,.621-.691c.136-.175.26-.352.378-.538l.02-.024c.138-.221.267-.45.383-.682a7.714,7.714,0,0,0,.457-5.543l-.011-.031c-.059-.2-.127-.407-.2-.605l-.013-.033c-.061-.16-.127-.315-.2-.468l-.013-.031-.017-.031-.011-.028a7.95,7.95,0,0,0-1.117-1.707l-.022-.028-.024-.024c-2.533-2.942-7.923-4.627-11.743-3.733a1.329,1.329,0,0,1-.186-.013,1.568,1.568,0,0,1-.267-.081c-.057-.028-.109-.059-.162-.092a1.486,1.486,0,0,1-.146-.116,1.277,1.277,0,0,1-.122-.142.955.955,0,0,1-.1-.157,1.559,1.559,0,0,1-.094-.262,1.742,1.742,0,0,1-.022-.184,1.353,1.353,0,0,1,.007-.188,1.159,1.159,0,0,1,.107-.354,1.367,1.367,0,0,1,.1-.16,1.389,1.389,0,0,1,.192-.2l.074-.055q.079-.049.164-.092A8.91,8.91,0,0,1,318.482,54.411Z" transform="translate(-309.799 -54.411)"/></g><g transform="translate(6964.266 -2971.757)"><path class="a" d="M323.324,63.14a1.059,1.059,0,0,1,.184.024,1.287,1.287,0,0,1,.177.057,1.153,1.153,0,0,1,.164.083,1.5,1.5,0,0,1,.151.114A17.049,17.049,0,0,1,327.874,69l.011.035c1.383,3.691-.929,7.77-3.906,9.957a10.708,10.708,0,0,1-3.355,1.663,10.868,10.868,0,0,1-6.111-.146c-5.547-1.864-6.69-6.917-8.893-11.948a1.33,1.33,0,0,1-.033-.372,1.659,1.659,0,0,1,.031-.181l.028-.09a1.471,1.471,0,0,1,.074-.17,1.452,1.452,0,0,1,.1-.155,1.3,1.3,0,0,1,.2-.195,1.334,1.334,0,0,1,.243-.138,1.435,1.435,0,0,1,.269-.072c.063,0,.125-.007.188-.007a1.316,1.316,0,0,1,.184.022,1.1,1.1,0,0,1,.262.092,1.108,1.108,0,0,1,.3.219c1.593,2.813,2.186,6.27,4.273,8.819l.02.02c.031.037.063.074.1.107l.02.024c.039.039.077.079.116.12l.02.017a2.576,2.576,0,0,0,.212.2c.046.037.092.074.135.111a9.2,9.2,0,0,0,5.674,1.923,8.05,8.05,0,0,0,1.825-.262l.028-.011a8.656,8.656,0,0,0,6.163-6.485,3.354,3.354,0,0,0,.066-.441c0-.022,0-.046,0-.068l0-.07,0-.022v-.044l0-.024v-.114l0-.022v-.048l0-.022V71.2l0-.02c-.007-.1-.015-.208-.026-.31-.024-.129-.042-.26-.07-.389a5.874,5.874,0,0,0-.264-.857,16.119,16.119,0,0,0-3.353-4.706c-.037-.05-.072-.1-.1-.155l-.042-.083a1.189,1.189,0,0,1-.059-.177,1.334,1.334,0,0,1-.031-.184,1.316,1.316,0,0,1,0-.186l.011-.092a1.709,1.709,0,0,1,.048-.181l.035-.085a1.3,1.3,0,0,1,.094-.162l.057-.074a1.214,1.214,0,0,1,.127-.133,1.473,1.473,0,0,1,.151-.109,1.687,1.687,0,0,1,.166-.083,1.5,1.5,0,0,1,.271-.07A1.8,1.8,0,0,1,323.324,63.14Z" transform="translate(-305.586 -63.14)"/></g><g transform="translate(6938.555 -2982.217)"><path class="a" d="M306.854,58.354a12.207,12.207,0,0,1,5.09,1.014,1.285,1.285,0,0,1,.151.118,1.554,1.554,0,0,1,.129.14,1.421,1.421,0,0,1,.1.162,1.4,1.4,0,0,1,.072.179l.026.094a1.156,1.156,0,0,1,.013.378,1.119,1.119,0,0,1-.116.363,1.831,1.831,0,0,1-.1.162,1.133,1.133,0,0,1-.131.14,1.336,1.336,0,0,1-.153.116l-.083.048a1.339,1.339,0,0,1-.175.072,1.366,1.366,0,0,1-.188.039,1.122,1.122,0,0,1-.192.009,1.258,1.258,0,0,1-.282-.052c-.236-.1-.479-.179-.719-.269-3.729-1.182-8.819-.6-11.809,2.054-.181.166-.354.341-.518.522a7.579,7.579,0,0,0-.629.791c-.1.151-.194.3-.284.459a8.951,8.951,0,0,0-.243,7.809,10.449,10.449,0,0,0,1.115,2.019,9,9,0,0,0,.619.8l.028.037.186.205a10.087,10.087,0,0,0,5.049,2.985c4.351.929,9.606-1.1,11.747-5.079l.011-.028.033-.057a.5.5,0,0,1,.042-.085c.059-.125.116-.251.173-.38l.011-.028a2.157,2.157,0,0,1,.138-.3l.055-.079a1.547,1.547,0,0,1,.129-.14l.072-.063.079-.055a1.266,1.266,0,0,1,.17-.09,1.318,1.318,0,0,1,.179-.059,1.18,1.18,0,0,1,.382-.02l.094.018a1.357,1.357,0,0,1,.184.055l.085.039a1.123,1.123,0,0,1,.162.1,1.328,1.328,0,0,1,.144.127l.061.074a1.382,1.382,0,0,1,.144.245,1.058,1.058,0,0,1,.059.184,1.412,1.412,0,0,1,.026.19,1.249,1.249,0,0,1-.022.286c-2.4,6.712-11.684,9.418-17.705,6.1-5.5-3.034-8.443-10.7-4.883-16.272C297.8,59.642,302.579,58.315,306.854,58.354Z" transform="translate(-293.822 -58.354)"/></g><g transform="translate(6942.948 -3001.351)"><path class="a" d="M308.049,49.6a5.917,5.917,0,0,1,1.919.326.621.621,0,0,0,.068.024c.083.028.164.059.247.09a9.289,9.289,0,0,1,4.382,3.414,6.878,6.878,0,0,1,1.1,3.333l-.007.092a1.269,1.269,0,0,1-.035.177,1.444,1.444,0,0,1-.063.17,1.348,1.348,0,0,1-.09.155,1.423,1.423,0,0,1-.116.142,1.216,1.216,0,0,1-.212.168A1.317,1.317,0,0,1,315,57.8a1.282,1.282,0,0,1-.177.039,1.232,1.232,0,0,1-.179.011l-.092-.007a1.236,1.236,0,0,1-.179-.035,1.562,1.562,0,0,1-.168-.063,1.2,1.2,0,0,1-.155-.09,1.427,1.427,0,0,1-.142-.116,1.216,1.216,0,0,1-.168-.212,1.112,1.112,0,0,1-.081-.162,1.083,1.083,0,0,1-.072-.262,4.305,4.305,0,0,0-.3-1.394,5.089,5.089,0,0,0-.468-.874c-.033-.044-.063-.09-.094-.133s-.077-.1-.118-.155a6.211,6.211,0,0,0-.745-.809l-.026-.02-.024-.026c-.061-.05-.118-.1-.177-.153l-.028-.02-.024-.024-.21-.166c-.2-.153-.411-.3-.627-.431a7.149,7.149,0,0,0-1.665-.754l-.026-.007a1.865,1.865,0,0,0-.19-.048l-.02-.007-.046-.011-.066-.013-.022-.007-.044-.007c-.042-.007-.083-.013-.122-.022l-.059-.007-.02,0-.055,0h-.02l-.05-.007a5.6,5.6,0,0,0-2.072.282,7.805,7.805,0,0,0-.977.382,13.717,13.717,0,0,0-7.013,8.353.7.7,0,0,1-.026.1c-.028.116-.057.232-.079.348a5.443,5.443,0,0,0,.02,2.592l.022.079.013.037.02.057.035.085c.02.044.039.087.057.133a.761.761,0,0,1,.046.094l.015.026q.049.1.1.2l.015.024a9.589,9.589,0,0,0,4.548,3.938,4.368,4.368,0,0,0,2.76.2,1.647,1.647,0,0,1,.181-.017l.087,0a1.244,1.244,0,0,1,.269.05,1.57,1.57,0,0,1,.166.07,1.2,1.2,0,0,1,.153.094,1.815,1.815,0,0,1,.138.12,1.116,1.116,0,0,1,.2.3,1.627,1.627,0,0,1,.061.173l.022.085.011.09a1.7,1.7,0,0,1,0,.181,1.244,1.244,0,0,1-.026.181,1.175,1.175,0,0,1-.138.334,1.4,1.4,0,0,1-.109.144,1.179,1.179,0,0,1-.446.3c-3.047.894-6.163-.946-8.213-3.088a7.806,7.806,0,0,1-2.273-4.015c-.02-.129-.037-.258-.05-.389l0-.039c-.472-5.451,4.356-11.262,9.112-13.1a9.7,9.7,0,0,1,1.9-.529A7.766,7.766,0,0,1,308.049,49.6Z" transform="translate(-295.832 -49.599)"/></g></g></svg>