<svg xmlns="http://www.w3.org/2000/svg" width="84.997" height="77.105" viewBox="0 0 84.997 77.105"><defs><style>.a{fill:#ecd684;}</style></defs><path class="a" d="M-898.37,219.188a24.185,24.185,0,0,1,5.475.671,24.177,24.177,0,0,1,3.136.988c5.558,2.2,9.2,6.131,12.7,10.79l.031.035.026.037.031.033c.129.164.267.323.409.476a33.044,33.044,0,0,1,2.9-5.857c.063-.09.131-.177.2-.264l.02-.031c.109-.127.216-.254.334-.372a20.63,20.63,0,0,1,12.5-5.665q.829-.082,1.665-.109a22.338,22.338,0,0,1,17.187,6.913,24.052,24.052,0,0,1,2.732,3.746A26.777,26.777,0,0,1-835.529,241a31.848,31.848,0,0,1-10.729,28.27c-9.42,8.323-21.062,13.382-29.048,23.357l0,0h0l0,0,0,.007-.011.017,0,.007-.007.011c-.605.887-1.064,1.873-1.711,2.736l-.024.028c-.039.052-.083.1-.122.153l-.131.146c-.07.068-.138.133-.21.2l-.109.085-.061.042-.02.015-.022.013-.074.044-.05.026-.057.026-.061.024-.033.015c-.046.015-.094.031-.14.044l-.028,0-.367.02-.352-.1-.3-.212h0l-.138-.168h0l-.077-.135-.02-.042c-.485-1.484-.948-2.977-1.5-4.439l-.009-.02-.015-.037-.013-.028-.02-.033c-3.584-5.116-10.753-7.754-15.8-10.559-6.388-3.549-12.683-7.643-17.034-13.625a35.387,35.387,0,0,1-3.652-34.106c2.778-6.358,7.907-11.573,14.77-13.151l.262-.052.05-.013c.35-.07.7-.129,1.056-.181.308-.035.612-.079.92-.111C-899.743,219.233-899.061,219.179-898.37,219.188Zm-.109,2.192-.3,0c-.317.009-.632.026-.948.042l-.048.007c-.114.007-.229.013-.343.026-.354.033-.706.074-1.058.127-.437.07-.868.153-1.3.249l-.044.013c-.212.044-.422.1-.632.16-9.566,2.682-14.178,12.954-14.805,22.149a32.447,32.447,0,0,0,10.53,26.539c7.1,6.367,16.339,9.361,23.943,14.938a17.954,17.954,0,0,1,4.371,4.319c.02.035.039.072.061.107l.085.179.026.063.015.031c.339.841.621,1.711.9,2.575.293-.492.573-.992.881-1.475l.018-.024.046-.068c13.43-17.067,40.89-22.306,39.559-47.964a31.079,31.079,0,0,0-.876-5.726c-.052-.175-.1-.352-.149-.529a27.369,27.369,0,0,0-1.534-3.919c-.074-.14-.146-.282-.219-.424a23.315,23.315,0,0,0-1.7-2.745,16.836,16.836,0,0,0-4.212-4.247,20.247,20.247,0,0,0-8.187-3.35l-.061-.007-.061-.013a20.72,20.72,0,0,0-13.378,2.1,16.792,16.792,0,0,0-3.665,2.747l-.011.013-.044.044-.013.017-.013.013-.011.013-.026.033-.013.015-.057.07-.013.02-.048.059c-.052.074-.107.149-.16.225a35.362,35.362,0,0,0-3.079,6.618l-.037.059-.02.068-.094.114-.076.12-.057.042-.044.055-.129.07-.118.083-.07.018-.061.035-.144.013-.14.033-.072-.011-.07.007-.138-.042-.144-.024-.061-.037-.066-.02c-.079-.039-.155-.083-.229-.129l-.044-.028c-.046-.028-.092-.057-.138-.087l-.042-.031-.046-.031c-.144-.1-.282-.212-.418-.326l-.039-.035c-.107-.092-.21-.188-.31-.286l-.186-.188-.035-.039-.039-.039q-.393-.426-.747-.887l-.033-.039c-.605-.8-1.182-1.613-1.759-2.428l-.02-.028c-.306-.387-.625-.765-.953-1.134l-.042-.048a26.079,26.079,0,0,0-2.808-2.708c-.667-.509-1.316-1.025-2.017-1.486a15.038,15.038,0,0,0-1.816-1.075,21.487,21.487,0,0,0-3.351-1.438A21.723,21.723,0,0,0-898.48,221.38Z" transform="translate(920.276 -219.187)"/></svg>