<svg xmlns="http://www.w3.org/2000/svg" width="45.703" height="46.865" viewBox="0 0 45.703 46.865"><defs><style>.a{fill:none;stroke:#251c16;stroke-width:2px;}</style></defs><g transform="translate(1.029 1.091)"><path class="a" d="M919.157,534.924V509.177s-1.243-7.331,9.1-8.987,26.88,0,26.88,0,7.027-.414,7.443,11.992,0,22.742,0,22.742,2.071,8.684-9.509,9.1-28.943,0-28.943,0S919.157,543.194,919.157,534.924Z" transform="translate(-919.11 -499.455)"/><path class="a" d="M968.937,517.634s-5.652-.641-5.452,4.05c.055,1.3.291,4.92.291,4.92l5.161-.4v4.673h-4.517v14.332c-1.667,0-3.6.637-4.221.015-.24-.239-.608-14.347-.608-14.347h-5.141V526.2h5.141v-7.319s-.773-5.738,9.346-5.608C969.442,513.282,968.937,517.634,968.937,517.634Z" transform="translate(-935.26 -505.769)"/></g></svg>