<svg xmlns="http://www.w3.org/2000/svg" width="96.229" height="90.478" viewBox="0 0 96.229 90.478"><defs><style>.a{fill:#404040;}</style></defs><g transform="translate(-603.292 -3758.646)"><path class="a" d="M-878.927,132.871c16.011.013,31.992,1.877,41.132,16.171A34.649,34.649,0,0,1-832.18,167.3c-.015,16.584-20.87,18.971-32.6,23.593-13.642,5.376-20.063,18.483-23.987,31.684l-.19.367-.313.269-.389.135-.413-.02-.376-.17-.286-.3a2.623,2.623,0,0,1-.19-.341c-.713-1.788-.315-3.774-.382-5.639a37.072,37.072,0,0,0-2.551-12.716c-1.746-4.15-4.408-6.087-8.7-7.177-4.234-1.075-8.279-1.327-12.038-3.615-7.354-4.474-11.6-13.229-13.225-21.425a25.419,25.419,0,0,1,1.257-15.069C-919.148,139.613-895.642,132.845-878.927,132.871Zm-.361,2.194c-15.893.033-44.758,8.29-46.837,28.795-.844,8.318,2.693,17.88,8.165,23.875,5.728,6.27,12.075,4.935,19.438,8.255,7.553,3.4,8.591,13.1,9.385,20.249,3.726-10.921,10.733-21.683,21.591-26.574,9.348-4.212,24.988-4.942,31.151-14.8a12.975,12.975,0,0,0,.938-1.794c4.8-11.3-4.529-27.324-14.154-32.692C-858.358,135.5-869.631,135.046-879.287,135.065Z" transform="translate(1531.7 3625.775)"/><g transform="translate(626.669 3795.255)"><path class="a" d="M-913.245,149.623a6.173,6.173,0,0,1,.724.057h0l.007,0a5.439,5.439,0,0,1,1.733.557,4.317,4.317,0,0,1-.2,7.521c-3.053,1.565-7.243-1.014-6.686-4.553A4.334,4.334,0,0,1-913.245,149.623Zm-.1,2.19a2.422,2.422,0,0,0-1.156.293.709.709,0,0,1-.088.052l-.14.1c-.068.057-.136.114-.2.175-.022.024-.044.048-.066.07s-.042.05-.061.072l-.015.02a2.058,2.058,0,0,0-.332.6,2.073,2.073,0,0,0-.081,1.082,2.014,2.014,0,0,0,.1.332l.046.1a2.725,2.725,0,0,0,.186.306l.079.1a2.922,2.922,0,0,0,1.63.861l.039.007.015,0,.039,0,.07.013h.02l.017,0c.046,0,.092.009.14.011a.348.348,0,0,0,.083,0l.015,0h.033l.017,0h.079l.017,0h.031l.013,0h.048l.046,0h.015l.057-.007a.558.558,0,0,1,.059-.009l.015,0,.013,0,.013,0,.044-.009h.011l.125-.028.011,0,.026-.007.013,0,.039-.011.037-.013.037-.013.013,0,.013-.007.011,0,.061-.024.011-.007a1.992,1.992,0,0,0,.743-.56,2.341,2.341,0,0,0,.424-2.1c-.022-.061-.046-.12-.07-.179a.576.576,0,0,1-.031-.066l-.035-.061a1.368,1.368,0,0,0-.1-.151l-.007-.011-.007-.011-.009-.009-.013-.02-.017-.02-.007-.011-.039-.046-.022-.028-.035-.037-.011-.011-.007-.009-.046-.044-.009-.009-.088-.079-.013-.009-.009-.009a1.3,1.3,0,0,0-.111-.081l-.011-.011-.1-.061-.011-.007-.028-.017-.079-.044-.041-.022-.044-.022c-.05-.024-.1-.046-.153-.066l-.015-.009c-.109-.042-.221-.079-.334-.109A3.786,3.786,0,0,0-913.345,151.813Z" transform="translate(917.712 -149.622)"/></g><g transform="translate(638.732 3795.131)"><path class="a" d="M-907.781,149.565a5.037,5.037,0,0,1,3.125,1.077l0,0c3.632,3.047.345,9-4.124,7.77a5.285,5.285,0,0,1-1.569-.734l-.07-.052-.024-.015a4.528,4.528,0,0,1,1.309-7.866A4.4,4.4,0,0,1-907.781,149.565Zm-.052,2.192h-.035l-.015,0h-.081l-.033,0h-.015l-.033,0h-.015l-.09.011-.015,0-.046.007-.013,0-.017,0h-.013l-.013,0-.015,0-.028.007-.015,0-.122.028a2.081,2.081,0,0,0-.6.269,2.144,2.144,0,0,0-.433.387,2.449,2.449,0,0,0-.514,1.108,2.3,2.3,0,0,0,.848,2.24l.05.037.013.009.024.017.015.009.011.009c.079.05.16.1.24.142l.079.039c.031.015.063.031.1.044l.015.009c.111.048.227.085.341.127l.02,0c.063.02.127.037.192.055a2.293,2.293,0,0,0,1.268-.022l.1-.037a1.969,1.969,0,0,0,.358-.2c.079-.057.149-.118.223-.181l.079-.079c.046-.05.09-.1.135-.155a1.057,1.057,0,0,0,.081-.114l.015-.017a2.645,2.645,0,0,0,.243-.444l.009-.022.011-.022a3.2,3.2,0,0,0,.133-.424,2.773,2.773,0,0,0,.068-.782,2.311,2.311,0,0,0-.188-.791l-.007-.02c-.011-.02-.022-.042-.031-.061l-.039-.079-.046-.079c-.035-.057-.074-.111-.114-.164l-.042-.052-.015-.017-.013-.017-.017-.018-.013-.017-.015-.015-.048-.05a.607.607,0,0,1-.066-.066l-.072-.061a1.771,1.771,0,0,0-.245-.173l-.015-.011a2.961,2.961,0,0,0-.334-.166c-.028-.011-.057-.022-.087-.031a4.161,4.161,0,0,0-.71-.173l-.037,0-.017,0-.129-.011h-.017a.365.365,0,0,0-.07,0h-.05l-.017,0Z" transform="translate(912.192 -149.565)"/></g><g transform="translate(651.26 3795.204)"><path class="a" d="M-902.073,149.6a5.088,5.088,0,0,1,.793.063h.009a5.564,5.564,0,0,1,1.388.407,4.073,4.073,0,0,1,1.606,1.248l.017.022a4.634,4.634,0,0,1-1.818,6.869l-.028.009-.022.011a4.286,4.286,0,0,1-.61.19,5.111,5.111,0,0,1-3.538-.605,4.451,4.451,0,0,1,.006-7.665A4.482,4.482,0,0,1-902.073,149.6Zm-.042,2.192h-.05l-.017,0h-.033l-.015,0h-.015l-.048,0h-.015l-.125.013-.046.007-.013,0h-.015l-.015,0h-.015l-.011,0a2.183,2.183,0,0,0-.4.114,2.553,2.553,0,0,0-.26.122.329.329,0,0,1-.066.039,2.156,2.156,0,0,0-.568.522l-.1.146-.013.022a2.383,2.383,0,0,0-.186,2.039,2.161,2.161,0,0,0,.739.927c.042.031.083.061.127.087l.013.009.042.024.015.009.013.009.015.009.057.033.015.007c.028.017.061.033.092.048l.111.052a3.459,3.459,0,0,0,.413.151c.079.022.157.042.236.061l.02,0,.017.007c.072.011.144.028.216.035l.017,0,.138.013h.015l.033,0h.236l.031,0h.013l.16-.017.015,0,.013,0,.015,0h.013l.013,0,.013,0,.068-.015.013,0,.013,0,.066-.017.013-.007.024-.007.013,0,.013,0,.024-.011.013,0,.024-.011.013,0,.013-.007.011,0,.048-.02.046-.022.07-.035.011,0,.011-.007a.7.7,0,0,0,.07-.037l.052-.031a2.79,2.79,0,0,0,.289-.221,2.507,2.507,0,0,0,.675-1.123,2.4,2.4,0,0,0-.219-1.884l-.035-.052-.015-.022-.007-.011-.033-.042,0-.011-.026-.033-.006-.007-.026-.033-.072-.079-.006-.009-.011-.009-.057-.057-.011-.009-.031-.028-.009-.009-.033-.028-.011-.007-.011-.011-.02-.015-.015-.011-.02-.017c-.044-.033-.088-.063-.133-.092l-.011-.009-.013-.007-.026-.017-.015-.007-.052-.033-.031-.013-.011-.009-.044-.022c-.042-.02-.081-.039-.12-.055l-.017-.009a3.869,3.869,0,0,0-.833-.223c-.079-.011-.157-.018-.238-.024a.429.429,0,0,1-.052,0Z" transform="translate(906.46 -149.598)"/></g><g transform="translate(664.451 3795.379)"><path class="a" d="M-896.03,149.678c.162,0,.323.011.483.028.092.009.184.02.275.037h0a4.961,4.961,0,0,1,1.934.717,4.593,4.593,0,0,1-.3,7.586,4.115,4.115,0,0,1-1.141.45c-4.126.85-7.6-4.214-4.415-7.516A4.348,4.348,0,0,1-896.03,149.678Zm-.052,2.194h-.081l-.015,0h-.015l-.015,0h-.015l-.015,0h-.015l-.076.007h-.015l-.013,0-.015,0-.057.007-.015,0-.015,0-.013,0a2.134,2.134,0,0,0-.452.127,2.093,2.093,0,0,0-.33.179l-.02.013-.081.057-.018.015-.02.015c-.05.042-.1.085-.146.129-.022.024-.046.048-.07.07l-.048.055c-.057.072-.111.144-.166.219-.039.063-.079.129-.116.2a2.472,2.472,0,0,0-.175,1.775,2.168,2.168,0,0,0,.317.636,2.261,2.261,0,0,0,.533.507l.013.009.011.009.052.033.013.009c.074.044.151.087.227.127.037.017.072.035.109.05l.015.007.035.013.015.009.153.059.149.05.02,0a3.818,3.818,0,0,0,.422.1l.017,0,.015,0,.035,0,.015,0,.081.009h.018l.033,0h.015l.031,0h.181l.015,0h.013l.015,0h.015l.028,0h.013l.1-.011.015,0,.024,0,.015,0,.026,0,.026-.007.013,0,.037-.009.013,0,.114-.031.011,0,.011,0,.013,0,.011,0,.048-.017.013,0c.046-.02.092-.039.138-.061l.011-.007.009,0,.011-.007.013,0,.009-.007.013,0,.022-.013.009,0,.024-.013c.028-.017.055-.035.083-.055l.02-.011a2.613,2.613,0,0,0,.546-.551,2.588,2.588,0,0,0,.131-2.669l-.007-.011-.013-.022-.046-.063,0-.009-.042-.052-.033-.039-.007-.011c-.035-.039-.07-.079-.107-.116l-.011-.009-.037-.037-.009-.007-.011-.013-.031-.024-.011-.009-.02-.02-.011-.009-.011-.009c-.048-.037-.1-.074-.149-.109l-.013-.007-.024-.017-.013-.007-.024-.015-.066-.039-.015-.007-.013-.007-.013-.007-.015-.009-.013-.007-.013-.009-.028-.013-.015-.007q-.1-.049-.216-.092a3.255,3.255,0,0,0-.5-.138c-.118-.022-.238-.037-.358-.048h-.017l-.033,0h-.017l-.017,0h-.018l-.015,0h-.1Z" transform="translate(900.425 -149.678)"/></g><g transform="translate(664.13 3767.86)"><path class="a" d="M-895.263,137.087c2.6.059,4.424,2.251,5.495,4.4,1.661,3.335,1.665,6.952-.833,9.807-1.338,1.528-3.281,2.492-4.264,4.316a4.786,4.786,0,0,0-.232.56,8.04,8.04,0,0,0-.271,3.263l0,.011,0,.009,0,.024,0,.009,0,.013,0,.009.011.033a1.111,1.111,0,0,1,.044.186l.011.1a1.258,1.258,0,0,1-.024.286l-.022.092a1.276,1.276,0,0,1-.072.177,1.108,1.108,0,0,1-.1.162,1.165,1.165,0,0,1-.129.144,1,1,0,0,1-.151.118,1.559,1.559,0,0,1-.168.09,1.228,1.228,0,0,1-.276.076,1.107,1.107,0,0,1-.19.011l-.1-.007a1.241,1.241,0,0,1-.278-.072l-.087-.039a1.253,1.253,0,0,1-.236-.162,1.354,1.354,0,0,1-.186-.216l-.05-.083a1.606,1.606,0,0,1-.074-.177c-.02-.061-.037-.12-.055-.181a8.185,8.185,0,0,1,2.081-7.361c1.626-1.55,4.155-3,4.552-5.451a8.411,8.411,0,0,0-1.2-5.342,6.026,6.026,0,0,0-2.017-2.238l-.026-.013-.072-.042-.046-.026a.472.472,0,0,1-.074-.037,2.4,2.4,0,0,0-1.624-.181,3.5,3.5,0,0,0-.426.146l-.02.011a.367.367,0,0,0-.066.033l-.022.009a.589.589,0,0,0-.081.046,1.836,1.836,0,0,0-.212.135l-.02.013-.015.015a2.71,2.71,0,0,0-.312.28,3.466,3.466,0,0,0-.452.616l-.015.022a11.744,11.744,0,0,0-.761,1.866l-.006.022c-.02.052-.035.107-.05.162l0,.02a1.382,1.382,0,0,1,.013.19,1.354,1.354,0,0,1-.044.282,1.2,1.2,0,0,1-.168.343l-.061.074a1.09,1.09,0,0,1-.214.188,1.253,1.253,0,0,1-.168.092,1.268,1.268,0,0,1-.181.063,1.393,1.393,0,0,1-.188.028,1.105,1.105,0,0,1-.19,0l-.1-.013a1.288,1.288,0,0,1-.271-.094,1.259,1.259,0,0,1-.164-.1,1.15,1.15,0,0,1-.144-.127,1.364,1.364,0,0,1-.273-.463,1.613,1.613,0,0,1-.068-.433,5.422,5.422,0,0,1,.413-1.53h0C-899.466,138.98-897.8,137.087-895.263,137.087Zm-3.241,5.252v0l0,0Zm-.026-.042,0,0-.046-.068Z" transform="translate(900.572 -137.087)"/></g></g></svg>