<svg xmlns="http://www.w3.org/2000/svg" width="265.283" height="304.886" viewBox="0 0 265.283 304.886"><defs><style>.a{fill:#ecd684;}.b{fill:#d0939b;}.c{fill:#fff;}.d{fill:#85d3c4;}.e{fill:#251c16;}</style></defs><g transform="translate(-70.867 -39.129)"><path class="a" d="M231.454,87.079l-86.727,86.727c1.733.366,3.458.761,5.173,1.195l6.133-6.133L168.268,181.1a132.874,132.874,0,0,1,12.166,5.8l-21.216-21.216,21.531-21.532,22.807,22.806-21.067,21.068c1.35.76,2.683,1.552,4.007,2.36l20.243-20.244,21.532,21.532L210.66,209.285c.192.19.389.375.581.567q1.307,1.307,2.573,2.647l17.64-17.641,21.532,21.532-20.762,20.762a132.637,132.637,0,0,1,7.751,15.658l13.012,13.012-6.6,6.6c.42,1.726.812,3.46,1.162,5.2L334.774,190.4Zm72.238,78.6-22.807,22.807-21.532-21.532,22.806-22.806Zm-24.715-24.715-22.807,22.807-21.531-21.532,22.806-22.807ZM231.454,93.447l22.807,22.806L231.454,139.06l-22.806-22.807Zm-47.522,47.522,21.532-21.532,22.807,22.807-21.532,21.532Zm25.991,25.99,21.531-21.531,21.532,21.531-21.532,21.532Zm24.715,24.715,21.531-21.532L277.7,191.674l-21.532,21.532Zm21.531,70.962L234.638,241.1l21.531-21.532L277.7,241.1Zm24.715-24.715-21.532-21.532,21.532-21.532,21.531,21.532Zm3.184-46.247,22.806-22.806L328.407,190.4,305.6,213.206Z" transform="translate(-27.778 -18.033)"/><rect class="b" width="14.589" height="14.589" transform="translate(168.644 173.641) rotate(-45.001)"/><rect class="c" width="14.589" height="14.589" transform="translate(193.36 148.925) rotate(-45.001)"/><rect class="d" width="14.589" height="14.589" transform="translate(242.79 198.356) rotate(-45.001)"/><rect class="b" width="16.393" height="14.59" transform="translate(267.506 173.641) rotate(-45)"/><rect class="a" width="14.589" height="14.589" transform="translate(218.075 223.071) rotate(-44.999)"/><rect class="b" width="14.589" height="14.589" transform="translate(218.075 173.641) rotate(-45.001)"/><rect class="a" width="16.393" height="14.589" transform="translate(218.075 124.21) rotate(-45)"/><rect class="c" width="14.589" height="14.589" transform="translate(193.36 198.356) rotate(-45.001)"/><rect class="d" width="16.393" height="14.59" transform="translate(242.79 148.925) rotate(-45.001)"/><rect class="d" width="14.589" height="16.393" transform="translate(142.654 147.65) rotate(-45.001)"/><rect class="a" width="14.59" height="16.393" transform="translate(167.369 122.935) rotate(-44.999)"/><rect class="a" width="16.393" height="16.393" transform="translate(192.084 98.22) rotate(-45)"/><path class="e" d="M229.1,138.942l-21.532,21.532,22.806,22.807L251.9,161.749ZM218.78,160.474,229.1,150.157l11.592,11.592-10.317,10.316Z" transform="translate(-51.411 -37.539)"/><path class="e" d="M310.368,183.281l22.807-22.807-21.532-21.532-22.806,22.807Zm11.592-22.807-11.592,11.592-10.316-10.316,11.591-11.592Z" transform="translate(-81.977 -37.539)"/><path class="e" d="M349.982,222.895l22.807-22.807-21.532-21.532L328.45,201.362Zm11.592-22.807-11.592,11.592-10.316-10.317,11.591-11.591Z" transform="translate(-96.875 -52.437)"/><path class="e" d="M328.45,281.359l21.532,21.532,21.531-21.532-21.531-21.532Zm21.532,10.316-10.316-10.316,10.316-10.316L360.3,281.359Z" transform="translate(-96.875 -83.003)"/><path class="e" d="M292.792,120.091,269.985,97.285l-22.806,22.806L269.985,142.9ZM269.985,108.5l11.592,11.591-11.592,11.592-11.591-11.592Z" transform="translate(-66.31 -21.872)"/><path class="e" d="M390.87,218.17l-22.806,22.806L389.6,262.508,412.4,239.7Zm-11.591,22.806,11.591-11.591L401.187,239.7,389.6,251.293Z" transform="translate(-111.774 -67.336)"/><path class="e" d="M270.754,180.6l-21.531,21.531,21.531,21.532,21.532-21.532Zm-10.316,21.531,10.316-10.316,10.317,10.316-10.317,10.317Z" transform="translate(-67.078 -53.206)"/><path class="e" d="M288.837,320.973,310.368,342.5,331.9,320.973l-21.532-21.532Zm21.531,10.316-10.316-10.316,10.316-10.316,10.317,10.316Z" transform="translate(-81.977 -97.901)"/><path class="e" d="M331.9,241.745l-21.532-21.532-21.531,21.532,21.531,21.532Zm-21.532-10.316,10.317,10.316-10.317,10.316-10.316-10.316Z" transform="translate(-81.977 -68.104)"/><path class="a" d="M296.6,88.924a125.075,125.075,0,0,0-176.682,0,123.717,123.717,0,0,0-35.071,69.3q4.875-.353,9.724-.352a134.011,134.011,0,0,1,18.078,1.234l91.338-91.337a7,7,0,0,1,9.9,0L318.52,172.4a7,7,0,0,1,0,9.9L226.6,274.223a134.235,134.235,0,0,1,.708,26.454,123.721,123.721,0,0,0,69.3-35.07A125.076,125.076,0,0,0,296.6,88.924Z" transform="translate(-5.258 -4.987)"/><path class="e" d="M297.2,78.083c-51.939-51.939-136.45-51.938-188.389,0a131.813,131.813,0,0,0-37.881,77.3l-.06.476L213.339,298.336l5.9,5.9a6.4,6.4,0,0,1,.543,2.484,24.53,24.53,0,0,1-.8,5.8l-1.8,8.242c-1.02,4.673-3.73,17.086,3.74,22.234a6.333,6.333,0,0,0,3.636,1.013,11.761,11.761,0,0,0,8.377-3.721c4.946-6.21,1.666-13.868-1.227-20.625-3.242-7.571-4.944-12.429-1.254-16.043,1.427-1.4,3.3-1.949,6.247-1.831,2.128.082,3.782,3.063,3.942,5a20.571,20.571,0,0,1-.332,4.573c-.1.717-.208,1.436-.284,2.157-.065.624-.562,6.172,2.133,8.694a4.871,4.871,0,0,0,5.49,1.089,6.173,6.173,0,0,0,3.289-5.985c-.09-1.754-.351-3.473-.6-5.134-.2-1.335-.394-2.6-.5-3.873-.158-1.829,1.321-8.808,2.687-10.24a3.284,3.284,0,0,1,.235.267c.127.159.245.327.363.493a8.076,8.076,0,0,0,1.268,1.487,5.116,5.116,0,0,0,8.461-3.473,8.028,8.028,0,0,0-.3-2.526l-.087-.379a6.984,6.984,0,0,1-.182-2.33c.332-.164.666-.324,1-.491a132.785,132.785,0,0,0,33.92-24.648C349.135,214.533,349.135,130.022,297.2,78.083ZM215.008,291l-7.9-7.9L92.943,168.937l-8.666-8.666a127.167,127.167,0,0,1,16.525.432q4.977.454,9.915,1.3c1.786.306,3.567.643,5.341,1.026,1.517.328,3.027.691,4.533,1.075,1.474.376,2.944.771,4.407,1.2q4.99,1.467,9.872,3.357,5.065,1.958,9.981,4.372c1.511.742,3.013,1.51,4.5,2.316,1.366.74,2.718,1.513,4.06,2.308q2.208,1.306,4.375,2.7a126.283,126.283,0,0,1,37.131,37.131q2.222,3.424,4.193,6.96,1.151,2.056,2.222,4.145.955,1.869,1.846,3.762,1.867,3.975,3.439,8.049,2.11,5.458,3.692,11.061c.417,1.472.812,2.949,1.175,4.433q.558,2.283,1.025,4.583c.367,1.787.7,3.579.99,5.377q.8,4.986,1.2,10.017A127.264,127.264,0,0,1,215.008,291ZM142.654,147.65l10.316-10.316,11.592,11.591-10.316,10.317Zm25.99,25.99,10.316-10.316,10.317,10.316L178.96,183.957Zm24.715,24.715,10.316-10.316,10.317,10.316-10.317,10.316Zm26.412,61.233c-.351-1.744-.742-3.478-1.162-5.2l6.6-6.6L212.2,234.775a132.639,132.639,0,0,0-7.751-15.658l20.762-20.762-21.532-21.532-17.64,17.641q-1.266-1.339-2.573-2.647c-.192-.192-.389-.376-.581-.567l17.611-17.611L178.96,152.109l-20.243,20.244c-1.324-.808-2.658-1.6-4.007-2.36l21.067-21.068L152.97,126.119,131.439,147.65l21.216,21.216a132.875,132.875,0,0,0-12.166-5.8l-12.235-12.234-6.133,6.133c-1.715-.434-3.44-.829-5.173-1.195l86.727-86.727L307,172.365Zm71.571,1.031a123.721,123.721,0,0,1-69.3,35.07,134.235,134.235,0,0,0-.708-26.454l91.922-91.922a7,7,0,0,0,0-9.9L208.624,62.778a7,7,0,0,0-9.9,0l-91.338,91.337a134.011,134.011,0,0,0-18.078-1.234q-4.848,0-9.724.352a123.718,123.718,0,0,1,35.071-69.3A124.934,124.934,0,0,1,291.343,260.62Z" transform="translate(0 0)"/><path class="a" d="M221.582,338.83c-.289-1.8-.623-3.591-.99-5.377q-.472-2.3-1.025-4.583c-.362-1.484-.757-2.961-1.175-4.433q-1.585-5.6-3.692-11.061-1.575-4.071-3.439-8.049-.888-1.893-1.846-3.762-1.069-2.089-2.222-4.145-1.977-3.532-4.193-6.96a126.283,126.283,0,0,0-37.131-37.131q-2.164-1.4-4.375-2.7c-1.343-.795-2.695-1.568-4.06-2.308-1.487-.806-2.989-1.574-4.5-2.316q-4.912-2.41-9.981-4.372-4.879-1.887-9.872-3.357c-1.462-.43-2.933-.825-4.407-1.2-1.506-.384-3.016-.747-4.533-1.075-1.774-.383-3.556-.721-5.341-1.026q-4.934-.846-9.915-1.3a127.165,127.165,0,0,0-16.525-.432l8.666,8.666L215.19,356.067l7.9,7.9a127.271,127.271,0,0,0-.313-15.121Q222.378,343.821,221.582,338.83Z" transform="translate(-8.084 -72.966)"/></g></svg>