<svg xmlns="http://www.w3.org/2000/svg" width="45.693" height="46.559" viewBox="0 0 45.693 46.559"><defs><style>.a{fill:none;stroke:#251c16;stroke-width:2px;}</style></defs><g transform="translate(1.031 1.04)"><g transform="translate(0)"><path class="a" d="M1072.847,538.428c.185-8.268,0-25.747,0-25.747s-1.35-8.278,9.1-8.987c10.6-.72,25.75,0,25.75,0s8.581-.72,8.573,11.992c-.007,12.412,0,22.743,0,22.743s2.071,8.684-9.509,9.1-26.633.363-26.633.363S1072.64,547.705,1072.847,538.428Z" transform="translate(-1072.79 -503.374)"/><path class="a" d="M1114.781,534.312a11.29,11.29,0,0,0-11.29-11.29,11.466,11.466,0,0,0-11.289,11.29c-.291,6.853,5.054,11.289,11.289,11.289A11.289,11.289,0,0,0,1114.781,534.312Z" transform="translate(-1081.656 -512.353)"/><ellipse class="a" cx="1.938" cy="1.938" rx="1.938" ry="1.938" transform="translate(33.465 6.145)"/></g></g></svg>