<svg xmlns="http://www.w3.org/2000/svg" width="47.803" height="46.666" viewBox="0 0 47.803 46.666"><defs><style>.a{fill:none;stroke:#251c16;stroke-width:2px;}</style></defs><g transform="translate(1.042 1.001)"><g transform="translate(-0.001 0)"><path class="a" d="M1214.578,548.212c-8.49-.03-26.432,0-26.432,0s-8.5,1.386-9.225-9.339c-.739-10.878,0-26.434,0-26.434s-.739-8.809,12.31-8.8c12.743.007,23.347,0,23.347,0s8.833-.148,9.339,9.762c.606,11.879.372,27.341.372,27.341S1224.96,548.248,1214.578,548.212Z" transform="translate(-1178.593 -503.638)"/></g><g transform="translate(10.459 7.868)"><path class="a" d="M1210.714,517.751v19.034a4.431,4.431,0,0,1-4.4,4.038c-5.191.144-4.038-4.758-4.038-4.758a4.476,4.476,0,0,1,5.479-3.461l.577-4.9s-7.065-1.3-9.517,3.893-1.586,10.237.865,12.545,6.777,3.605,11.68,1.3,4.47-10.67,4.47-10.67l.01-8.219a7.028,7.028,0,0,0,6.334,2.163V524.1s-6.777,0-6.777-6.344Z" transform="translate(-1197.357 -517.751)"/></g></g></svg>