<svg xmlns="http://www.w3.org/2000/svg" width="192.32" height="103.004" viewBox="0 0 192.32 103.004"><defs><style>.a{fill:#251c16;}.b{fill:#85d3c4;}.c{fill:#cf909b;}</style></defs><g transform="translate(-146.187 -209.941)"><path class="a" d="M283.913,280.616h-7.582a4.24,4.24,0,0,1,0-8.479h7.582a4.243,4.243,0,0,1,0,8.479Z" transform="translate(-37.735 -18.629)"/><path class="b" d="M277.524,276.12a1.452,1.452,0,0,0,0,2.9h7.582c.3,0,1.29-.1,1.29-1.449s-.988-1.45-1.29-1.45Z" transform="translate(-38.928 -19.822)"/><g transform="translate(146.423 209.941)"><g transform="translate(107.683)"><path class="b" d="M323.645,229.141l-6.475,55.944h12.877Z" transform="translate(-305.32 -215.692)"/><path class="c" d="M369.6,221.1l-5.328,38.446c-.006.045-.008.081-.009.109a1.155,1.155,0,0,0,.151.008h10.45a1.144,1.144,0,0,0,.151-.008c0-.029,0-.067-.009-.113Z" transform="translate(-319.426 -213.284)"/><path class="a" d="M335.406,210.069a1.633,1.633,0,0,0-1.515.216,1.984,1.984,0,0,0-.851,1.56L327.4,267.771l-6.839-55.96a2.639,2.639,0,0,0-.16-.673,1.793,1.793,0,0,0-1.782-1.2,1.723,1.723,0,0,0-1.706,1.2,2.684,2.684,0,0,0-.153.661l-6.884,56.493L304.2,211.813l-.018-.1a2.137,2.137,0,0,0-1.485-1.674,2.009,2.009,0,0,0-1.954.564,1.806,1.806,0,0,0-.418,1.753l7.094,66.98a2.363,2.363,0,0,0,2.342,2.362,2.4,2.4,0,0,0,2.34-2.346v-.016l6.475-55.944,6.4,55.944h0a2.38,2.38,0,0,0,4.76.014v-.014l7.022-67.046A1.925,1.925,0,0,0,335.406,210.069Z" transform="translate(-300.253 -209.941)"/><path class="a" d="M369.14,212.033l-.006-.035a1.962,1.962,0,0,0-2.01-1.8h-1.277a1.961,1.961,0,0,0-2.01,1.8l-10.06,67.538a1.892,1.892,0,0,0,.289,1.552c.014.019.028.039.041.056a1.978,1.978,0,0,0,1.6.63,2,2,0,0,0,1.626-.686,1.891,1.891,0,0,0,.389-.99l3.031-20.579c.01-.06.026-.09.022-.09h0a.135.135,0,0,1,.04,0h11.414a.291.291,0,0,0,.032,0,.3.3,0,0,1,.029.093h0c.031.247.156,1.082.654,4.422q.76,5.092,2.375,15.981a2.132,2.132,0,0,0,.469,1.166,2.041,2.041,0,0,0,1.629.686,1.977,1.977,0,0,0,1.6-.63c.014-.017.028-.037.042-.056a1.873,1.873,0,0,0,.292-1.531Zm2.374,43.822H361.457a1.211,1.211,0,0,1-.145-.008.991.991,0,0,1,.008-.105l5.128-37,5.2,37c.006.045.008.081.008.109A1.2,1.2,0,0,1,371.514,255.855Z" transform="translate(-316.271 -210.019)"/><path class="a" d="M397.63,213.771h12.9a1.787,1.787,0,1,0,0-3.57H395.684a1.976,1.976,0,0,0-2.024,2.1V279.75a2.186,2.186,0,0,0,.39,1.339,1.848,1.848,0,0,0,1.554.686,1.949,1.949,0,0,0,1.629-.686,2.149,2.149,0,0,0,.4-1.339V259.505c0-.018,0-.035,0-.049h9.309a1.787,1.787,0,1,0,0-3.57h-9.3a.784.784,0,0,1-.009-.13V213.821C397.629,213.8,397.629,213.786,397.63,213.771Z" transform="translate(-328.23 -210.019)"/></g><g transform="translate(0)"><path class="c" d="M169.917,229.141l-6.475,55.944h12.877Z" transform="translate(-151.592 -215.692)"/><path class="b" d="M215.874,221.1l-5.329,38.446q-.007.067-.008.109a1.148,1.148,0,0,0,.151.008h10.449a1.156,1.156,0,0,0,.151-.008c0-.029,0-.067-.009-.113Z" transform="translate(-165.697 -213.284)"/><path class="a" d="M181.678,210.069a1.634,1.634,0,0,0-1.516.216,1.983,1.983,0,0,0-.85,1.56l-5.638,55.926-6.839-55.96a2.612,2.612,0,0,0-.159-.673,1.793,1.793,0,0,0-1.782-1.2,1.725,1.725,0,0,0-1.707,1.2,2.714,2.714,0,0,0-.153.661l-6.884,56.493-5.677-56.479-.018-.1a2.139,2.139,0,0,0-1.485-1.674,2.009,2.009,0,0,0-1.954.564,1.8,1.8,0,0,0-.418,1.753l7.094,66.98a2.363,2.363,0,0,0,2.341,2.362,2.4,2.4,0,0,0,2.34-2.346v-.016l6.475-55.944,6.4,55.944h0a2.38,2.38,0,0,0,4.76.014v-.014l7.022-67.046A1.925,1.925,0,0,0,181.678,210.069Z" transform="translate(-146.524 -209.941)"/><path class="a" d="M215.412,212.033l-.006-.035a1.962,1.962,0,0,0-2.01-1.8h-1.277a1.961,1.961,0,0,0-2.01,1.8l-10.06,67.538a1.892,1.892,0,0,0,.289,1.552c.014.019.027.039.041.056a1.978,1.978,0,0,0,1.6.63,2,2,0,0,0,1.626-.686,1.9,1.9,0,0,0,.389-.99l3.031-20.579c.01-.06.025-.09.021-.09h0a.134.134,0,0,1,.04,0H218.5a.292.292,0,0,0,.032,0,.3.3,0,0,1,.029.093h0c.031.247.156,1.082.654,4.422q.76,5.092,2.375,15.981a2.132,2.132,0,0,0,.469,1.166,2.04,2.04,0,0,0,1.629.686,1.978,1.978,0,0,0,1.6-.63c.014-.017.027-.037.041-.056a1.87,1.87,0,0,0,.293-1.531Zm2.374,43.822H207.729a1.211,1.211,0,0,1-.145-.008c0-.027,0-.062.008-.105l5.129-37,5.2,37c.006.045.008.081.008.109A1.21,1.21,0,0,1,217.786,255.855Z" transform="translate(-162.543 -210.019)"/><path class="a" d="M243.9,213.771h12.9a1.787,1.787,0,1,0,0-3.57H241.955a1.976,1.976,0,0,0-2.024,2.1V279.75a2.186,2.186,0,0,0,.391,1.339,1.847,1.847,0,0,0,1.554.686,1.949,1.949,0,0,0,1.63-.686,2.149,2.149,0,0,0,.4-1.339V259.505c0-.018,0-.035,0-.049h9.309a1.787,1.787,0,1,0,0-3.57h-9.3a.89.89,0,0,1-.008-.13V213.821C243.9,213.8,243.9,213.786,243.9,213.771Z" transform="translate(-174.502 -210.019)"/></g></g><path class="a" d="M176.581,338.562H147.538a1.35,1.35,0,1,0,0,2.7h29.044a1.35,1.35,0,0,0,0-2.7Z" transform="translate(0 -38.525)"/><path class="a" d="M405.819,338.562H376.775a1.35,1.35,0,0,0,0,2.7h29.044a1.35,1.35,0,1,0,0-2.7Z" transform="translate(-68.662 -38.525)"/><path class="a" d="M308.993,323.991H205.485a9.59,9.59,0,0,0-9.579,9.579v3.956a9.59,9.59,0,0,0,9.579,9.579H308.993a9.59,9.59,0,0,0,9.579-9.579V333.57A9.59,9.59,0,0,0,308.993,323.991Zm6.879,13.535a6.9,6.9,0,0,1-6.879,6.879H205.485a6.9,6.9,0,0,1-6.879-6.879V333.57a6.9,6.9,0,0,1,6.879-6.879H308.993a6.9,6.9,0,0,1,6.879,6.879Z" transform="translate(-14.892 -34.161)"/><g transform="translate(191.368 298.671)"><path class="a" d="M280.5,341.2l-.641-.6c0-.008.1-.146.214-.359a3.724,3.724,0,0,0,.261-.584c.03-.09.068-.286-.1-.347l-.551-.2c-.2-.075-.249.046-.294.2a2.636,2.636,0,0,1-.249.581l-.679-.694a2.993,2.993,0,0,0,.679-.757,1.25,1.25,0,0,0,.144-.579,1.345,1.345,0,0,0-1.471-1.26,1.364,1.364,0,0,0-1.5,1.222,1.294,1.294,0,0,0,.153.616,2.094,2.094,0,0,0,.345.462l.151.159v.022a1.81,1.81,0,0,0-.991,1.149,1.6,1.6,0,0,0-.043.367,1.533,1.533,0,0,0,1.66,1.433,2.225,2.225,0,0,0,1.645-.581l.49.49a.228.228,0,0,0,.34.022l.422-.43C280.675,341.358,280.6,341.29,280.5,341.2Zm-2.7-3.743a.487.487,0,0,1,.52.483.666.666,0,0,1-.286.511,1.166,1.166,0,0,1-.2.13l-.131-.13-.179-.179a.537.537,0,0,1-.2-.408A.437.437,0,0,1,277.8,337.457Zm-.083,3.645a.668.668,0,0,1-.71-.642.935.935,0,0,1,.025-.216.845.845,0,0,1,.511-.576l.544.576.445.473A.934.934,0,0,1,277.717,341.1Z" transform="translate(-230.229 -336.612)"/><g transform="translate(0)"><path class="a" d="M213.45,337.752a1.486,1.486,0,0,1,1.019.385.132.132,0,0,0,.188,0l.588-.611a.141.141,0,0,0-.008-.212,2.533,2.533,0,0,0-1.825-.7,2.716,2.716,0,1,0,0,5.432,2.59,2.59,0,0,0,1.833-.731.152.152,0,0,0,.008-.2l-.588-.626a.148.148,0,0,0-.2-.008,1.48,1.48,0,0,1-1.011.362,1.448,1.448,0,0,1-1.174-.593,1.563,1.563,0,0,1-.313-.939,1.628,1.628,0,0,1,.24-.855A1.441,1.441,0,0,1,213.45,337.752Z" transform="translate(-210.688 -336.612)"/><path class="a" d="M224.062,336.72h-2.256a.143.143,0,0,0-.143.144v4.994a.144.144,0,0,0,.143.144h.9a.149.149,0,0,0,.144-.144v-1.924h.52l.172.343.831,1.657a.138.138,0,0,0,.121.069h1a.143.143,0,0,0,.128-.219l-.812-1.506-.221-.41a1.6,1.6,0,0,0,1.106-1.383c0-.045.01-.088.01-.133A1.608,1.608,0,0,0,224.062,336.72Zm.464,1.763a.572.572,0,0,1-.562.493h-1.117V337.8h1.117a.554.554,0,0,1,.573.574A.631.631,0,0,1,224.527,338.483Z" transform="translate(-213.975 -336.644)"/><path class="a" d="M235.29,336.72h-3.123a.143.143,0,0,0-.144.144v4.994a.144.144,0,0,0,.144.144h3.123a.144.144,0,0,0,.143-.144v-.822a.143.143,0,0,0-.143-.144H233.2v-1.018h1.72a.143.143,0,0,0,.144-.143v-.823a.148.148,0,0,0-.144-.143H233.2v-.936h2.09a.143.143,0,0,0,.143-.143v-.822A.143.143,0,0,0,235.29,336.72Z" transform="translate(-217.078 -336.644)"/><path class="a" d="M243.44,336.72h-1.818a.143.143,0,0,0-.143.144v4.994a.144.144,0,0,0,.143.144h.89a.149.149,0,0,0,.144-.144v-1.773h.792a1.649,1.649,0,0,0,1.678-1.6c0-.032,0-.064,0-.1A1.645,1.645,0,0,0,243.44,336.72Zm.52,1.763a.542.542,0,0,1-.542.5h-.762v-1.154h.762a.537.537,0,0,1,.551.558A.719.719,0,0,1,243.96,338.483Z" transform="translate(-219.911 -336.644)"/><path class="a" d="M254.277,336.72h-3.123a.143.143,0,0,0-.144.144v4.994a.144.144,0,0,0,.144.144h3.123a.144.144,0,0,0,.143-.144v-.822a.143.143,0,0,0-.143-.144h-2.09v-1.018h1.72a.144.144,0,0,0,.144-.143v-.823a.149.149,0,0,0-.144-.143h-1.72v-.936h2.09a.143.143,0,0,0,.143-.143v-.822A.143.143,0,0,0,254.277,336.72Z" transform="translate(-222.765 -336.644)"/><path class="a" d="M262.107,338.762a3.821,3.821,0,0,1-.551-.312c-.175-.127-.271-.25-.271-.39a.409.409,0,0,1,.46-.415,2.053,2.053,0,0,1,1.018.408A.234.234,0,0,0,263.1,338l.385-.581a.192.192,0,0,0-.045-.242,2.808,2.808,0,0,0-1.615-.566,1.565,1.565,0,0,0-1.743,1.5,1.466,1.466,0,0,0,.038.337c.158.676.792,1.023,1.425,1.33a1.83,1.83,0,0,1,.675.463.491.491,0,0,1,.1.3.473.473,0,0,1-.52.452,1.937,1.937,0,0,1-1.072-.415.177.177,0,0,0-.256.045l-.347.612a.17.17,0,0,0,.03.226,2.4,2.4,0,0,0,1.7.581,1.658,1.658,0,0,0,1.781-1.561,1.615,1.615,0,0,0-.019-.239C263.489,339.4,262.717,339.06,262.107,338.762Z" transform="translate(-225.481 -336.612)"/></g><g transform="translate(56.625)"><path class="a" d="M297.8,336.688h-.883a.155.155,0,0,0-.136.106l-.42,1.657-.228.9h-.03l-.4-.9-.773-1.755a.128.128,0,0,0-.128-.083h-.136a.144.144,0,0,0-.128.083l-.773,1.755-.4.9h-.03l-.228-.9-.42-1.657a.155.155,0,0,0-.136-.106h-.883a.132.132,0,0,0-.136.181l.445,1.582.5,1.793.476,1.7a.146.146,0,0,0,.136.105h.121a.153.153,0,0,0,.128-.083l.764-1.718.609-1.369h.022l.612,1.369.768,1.718a.154.154,0,0,0,.128.083h.121a.144.144,0,0,0,.135-.105l.477-1.7.5-1.793.445-1.582A.132.132,0,0,0,297.8,336.688Z" transform="translate(-291.525 -336.612)"/><path class="a" d="M307.979,340.244l-.834-1.793-.816-1.755a.153.153,0,0,0-.128-.083h-.076a.153.153,0,0,0-.128.083l-.817,1.755-.834,1.793-.711,1.529a.133.133,0,0,0,.128.2h.83a.28.28,0,0,0,.271-.181l.272-.6h2.052l.272.6c.068.144.128.189.264.189h.837a.133.133,0,0,0,.128-.2Zm-2.39-.085.566-1.245h.008l.574,1.245Z" transform="translate(-295.148 -336.612)"/><path class="a" d="M318.206,336.72h-3.123a.143.143,0,0,0-.144.144v4.994a.144.144,0,0,0,.144.144h.89a.149.149,0,0,0,.144-.144v-1.833h1.72a.149.149,0,0,0,.144-.144v-.822a.149.149,0,0,0-.144-.144h-1.72v-1.086h2.09a.143.143,0,0,0,.144-.143v-.822A.143.143,0,0,0,318.206,336.72Z" transform="translate(-298.538 -336.644)"/><path class="a" d="M327.425,336.72H324.3a.144.144,0,0,0-.144.144v4.994a.144.144,0,0,0,.144.144h.89a.149.149,0,0,0,.144-.144v-1.833h1.72a.149.149,0,0,0,.144-.144v-.822a.148.148,0,0,0-.144-.144h-1.72v-1.086h2.09a.143.143,0,0,0,.144-.143v-.822A.143.143,0,0,0,327.425,336.72Z" transform="translate(-301.3 -336.644)"/><path class="a" d="M336.358,340.892h-1.8v-4.028a.148.148,0,0,0-.143-.144h-.9a.143.143,0,0,0-.144.144v4.994a.144.144,0,0,0,.144.144h2.837a.144.144,0,0,0,.143-.144v-.822A.143.143,0,0,0,336.358,340.892Z" transform="translate(-304.061 -336.644)"/><path class="a" d="M345.367,336.72h-3.123a.143.143,0,0,0-.143.144v4.994a.144.144,0,0,0,.143.144h3.123a.144.144,0,0,0,.144-.144v-.822a.143.143,0,0,0-.144-.144h-2.09v-1.018H345a.143.143,0,0,0,.143-.143v-.823a.148.148,0,0,0-.143-.143h-1.72v-.936h2.09a.143.143,0,0,0,.144-.143v-.822A.143.143,0,0,0,345.367,336.72Z" transform="translate(-306.674 -336.644)"/><path class="a" d="M353.2,338.762a3.856,3.856,0,0,1-.551-.312c-.175-.127-.271-.25-.271-.39a.409.409,0,0,1,.46-.415,2.053,2.053,0,0,1,1.018.408.234.234,0,0,0,.332-.053l.385-.581a.191.191,0,0,0-.045-.242,2.806,2.806,0,0,0-1.615-.566,1.565,1.565,0,0,0-1.743,1.5,1.465,1.465,0,0,0,.039.337c.158.676.791,1.023,1.425,1.33a1.831,1.831,0,0,1,.675.463.491.491,0,0,1,.1.3.473.473,0,0,1-.521.452,1.939,1.939,0,0,1-1.071-.415.177.177,0,0,0-.256.045l-.347.612a.17.17,0,0,0,.03.226,2.4,2.4,0,0,0,1.7.581,1.658,1.658,0,0,0,1.781-1.561,1.615,1.615,0,0,0-.019-.239C354.58,339.4,353.808,339.06,353.2,338.762Z" transform="translate(-309.39 -336.612)"/></g></g></g></svg>