<svg xmlns="http://www.w3.org/2000/svg" width="188.292" height="100.846" viewBox="0 0 188.292 100.846"><defs><style>.a{fill:#fff;}</style></defs><g transform="translate(-146.187 -209.941)"><path class="a" d="M276.244,280.439h7.423a4.154,4.154,0,0,0,0-8.3h-7.423a4.152,4.152,0,0,0,0,8.3Zm0-5.57h7.423c.3,0,1.263.1,1.263,1.42s-.967,1.418-1.263,1.418h-7.423a1.421,1.421,0,0,1,0-2.838Z" transform="translate(-39.584 -19.542)"/><path class="a" d="M307.27,277.881a2.314,2.314,0,0,0,2.293,2.313,2.349,2.349,0,0,0,2.291-2.3v-.016l6.34-54.772,6.268,54.772h0a2.331,2.331,0,0,0,4.661.014v-.014L336,212.239a1.884,1.884,0,0,0-1.33-2.173,1.6,1.6,0,0,0-1.484.211,1.943,1.943,0,0,0-.833,1.527l-5.52,54.755-6.7-54.787a2.585,2.585,0,0,0-.156-.659,1.755,1.755,0,0,0-1.745-1.172,1.687,1.687,0,0,0-1.671,1.172,2.627,2.627,0,0,0-.15.647l-6.739,55.309-5.558-55.3-.017-.1a2.093,2.093,0,0,0-1.454-1.639,1.967,1.967,0,0,0-1.913.552,1.768,1.768,0,0,0-.409,1.717Z" transform="translate(-48.407)"/><path class="a" d="M354.1,279.658a1.937,1.937,0,0,0,1.568.617,1.96,1.96,0,0,0,1.592-.671,1.856,1.856,0,0,0,.381-.97l2.968-20.148c.01-.058.025-.088.021-.088h0a.131.131,0,0,1,.039,0h11.175a.277.277,0,0,0,.032,0,.294.294,0,0,1,.028.091h0c.031.242.152,1.06.641,4.329q.743,4.985,2.324,15.647a2.092,2.092,0,0,0,.46,1.142,2,2,0,0,0,1.6.671,1.936,1.936,0,0,0,1.568-.617c.014-.016.027-.036.041-.054a1.836,1.836,0,0,0,.286-1.5l-10-66.11-.005-.034a1.921,1.921,0,0,0-1.968-1.76h-1.25a1.92,1.92,0,0,0-1.968,1.76l-9.849,66.123a1.855,1.855,0,0,0,.283,1.52C354.074,279.622,354.087,279.642,354.1,279.658Zm6.864-24.342,5.217-37.64,5.292,37.636c.005.046.008.082.009.111a1.117,1.117,0,0,1-.147.008H361.1a1.109,1.109,0,0,1-.147-.008A.905.905,0,0,1,360.964,255.316Z" transform="translate(-65.21 -0.081)"/><path class="a" d="M374.643,258.857a1.116,1.116,0,0,0,.147-.008c0-.029,0-.065-.009-.111L369.49,221.1l-5.217,37.64a.905.905,0,0,0-.008.107,1.109,1.109,0,0,0,.147.008Zm-10.173-.643,5.021-36.226,5.093,36.221c.005.044.008.08.008.107a1.142,1.142,0,0,1-.142.008H364.6a1.15,1.15,0,0,1-.142-.008A.948.948,0,0,1,364.471,258.213Z" transform="translate(-68.519 -3.506)"/><path class="a" d="M395.564,280.275a1.909,1.909,0,0,0,1.6-.671,2.108,2.108,0,0,0,.387-1.311v-19.82c0-.018,0-.034,0-.048h9.114a1.749,1.749,0,1,0,0-3.495h-9.105a.766.766,0,0,1-.009-.127V213.745c0-.018,0-.034,0-.049h12.63a1.749,1.749,0,1,0,0-3.5H395.642a1.934,1.934,0,0,0-1.982,2.06v66.033a2.144,2.144,0,0,0,.382,1.311A1.811,1.811,0,0,0,395.564,280.275Z" transform="translate(-77.755 -0.081)"/><path class="a" d="M153.542,277.881a2.313,2.313,0,0,0,2.292,2.313,2.349,2.349,0,0,0,2.291-2.3v-.016l6.339-54.772,6.269,54.772h0a2.33,2.33,0,0,0,4.661.014v-.014l6.875-65.642a1.885,1.885,0,0,0-1.33-2.173,1.6,1.6,0,0,0-1.484.211,1.942,1.942,0,0,0-.833,1.527L173.1,266.56l-6.7-54.787a2.555,2.555,0,0,0-.156-.659,1.755,1.755,0,0,0-1.745-1.172,1.689,1.689,0,0,0-1.671,1.172,2.657,2.657,0,0,0-.15.647l-6.739,55.309-5.558-55.3-.017-.1a2.094,2.094,0,0,0-1.454-1.639,1.967,1.967,0,0,0-1.913.552,1.767,1.767,0,0,0-.409,1.717Z" transform="translate(-0.106)"/><path class="a" d="M200.372,279.658a1.937,1.937,0,0,0,1.568.617,1.96,1.96,0,0,0,1.592-.671,1.861,1.861,0,0,0,.381-.97l2.967-20.148c.01-.058.025-.088.021-.088h0a.131.131,0,0,1,.039,0h11.175a.277.277,0,0,0,.032,0,.292.292,0,0,1,.028.091h0c.03.242.152,1.06.64,4.329q.744,4.985,2.325,15.647a2.092,2.092,0,0,0,.459,1.142,2,2,0,0,0,1.6.671,1.937,1.937,0,0,0,1.568-.617c.014-.016.027-.036.04-.054a1.834,1.834,0,0,0,.287-1.5l-10-66.11-.005-.034a1.921,1.921,0,0,0-1.968-1.76h-1.25a1.92,1.92,0,0,0-1.968,1.76l-9.849,66.123a1.855,1.855,0,0,0,.283,1.52C200.345,279.622,200.359,279.642,200.372,279.658Zm6.863-24.342,5.218-37.64,5.292,37.636c.005.046.008.082.009.111a1.121,1.121,0,0,1-.148.008h-10.23a1.122,1.122,0,0,1-.148-.008Q207.228,255.382,207.235,255.316Z" transform="translate(-16.909 -0.081)"/><path class="a" d="M220.914,258.857a1.121,1.121,0,0,0,.148-.008c0-.029,0-.065-.009-.111L215.762,221.1l-5.218,37.64q-.007.066-.008.107a1.121,1.121,0,0,0,.148.008Zm-10.173-.643,5.021-36.226,5.093,36.221c.005.044.008.08.008.107a1.152,1.152,0,0,1-.142.008h-9.846a1.152,1.152,0,0,1-.142-.008C210.735,258.289,210.737,258.255,210.742,258.213Z" transform="translate(-20.218 -3.506)"/><path class="a" d="M241.835,280.275a1.91,1.91,0,0,0,1.6-.671,2.108,2.108,0,0,0,.387-1.311v-19.82c0-.018,0-.034,0-.048h9.114a1.749,1.749,0,1,0,0-3.495h-9.106a.869.869,0,0,1-.008-.127V213.745c0-.018,0-.034,0-.049h12.63a1.749,1.749,0,1,0,0-3.5H241.913a1.935,1.935,0,0,0-1.982,2.06v66.033a2.144,2.144,0,0,0,.383,1.311A1.809,1.809,0,0,0,241.835,280.275Z" transform="translate(-29.454 -0.081)"/><path class="a" d="M175.945,338.562H147.509a1.322,1.322,0,1,0,0,2.644h28.436a1.322,1.322,0,0,0,0-2.644Z" transform="translate(0 -40.412)"/><path class="a" d="M405.182,338.562H376.747a1.322,1.322,0,0,0,0,2.644h28.436a1.322,1.322,0,1,0,0-2.644Z" transform="translate(-72.026 -40.412)"/><path class="a" d="M306.624,323.991H205.284a9.389,9.389,0,0,0-9.378,9.378v3.873a9.389,9.389,0,0,0,9.378,9.378h101.34A9.389,9.389,0,0,0,316,337.243v-3.873A9.389,9.389,0,0,0,306.624,323.991Zm6.735,13.252a6.758,6.758,0,0,1-6.735,6.735H205.284a6.758,6.758,0,0,1-6.735-6.735v-3.873a6.759,6.759,0,0,1,6.735-6.735h101.34a6.759,6.759,0,0,1,6.735,6.735Z" transform="translate(-15.622 -35.834)"/><path class="a" d="M279.778,340.52c0-.008.1-.143.209-.352a3.647,3.647,0,0,0,.256-.571c.029-.088.066-.28-.1-.34l-.539-.192c-.2-.073-.243.045-.288.2a2.581,2.581,0,0,1-.243.569l-.665-.68a2.93,2.93,0,0,0,.665-.741,1.225,1.225,0,0,0,.141-.566,1.317,1.317,0,0,0-1.44-1.234,1.336,1.336,0,0,0-1.47,1.2,1.267,1.267,0,0,0,.15.6,2.047,2.047,0,0,0,.337.453l.148.156v.022a1.772,1.772,0,0,0-.97,1.125,1.566,1.566,0,0,0-.042.359,1.5,1.5,0,0,0,1.625,1.4,2.179,2.179,0,0,0,1.61-.569l.48.48a.224.224,0,0,0,.333.022l.414-.421c.184-.184.11-.251.014-.339Zm-2.016-3.081a.477.477,0,0,1,.51.473.652.652,0,0,1-.28.5,1.143,1.143,0,0,1-.2.128l-.128-.128-.175-.175a.525.525,0,0,1-.2-.4A.428.428,0,0,1,277.762,337.439Zm-.082,3.568a.654.654,0,0,1-.695-.628.916.916,0,0,1,.025-.211.827.827,0,0,1,.5-.564l.532.564.435.463A.915.915,0,0,1,277.68,341.007Z" transform="translate(-40.764 -39.8)"/><path class="a" d="M213.392,337.728a1.455,1.455,0,0,1,1,.376.13.13,0,0,0,.184,0l.576-.6a.138.138,0,0,0-.008-.207,2.48,2.48,0,0,0-1.787-.687,2.659,2.659,0,1,0,0,5.318,2.537,2.537,0,0,0,1.795-.716.149.149,0,0,0,.008-.2l-.576-.613a.145.145,0,0,0-.192-.008,1.449,1.449,0,0,1-.99.355,1.417,1.417,0,0,1-1.149-.581,1.53,1.53,0,0,1-.307-.919,1.588,1.588,0,0,1,.235-.837A1.411,1.411,0,0,1,213.392,337.728Z" transform="translate(-20.266 -39.8)"/><path class="a" d="M224.012,336.72H221.8a.14.14,0,0,0-.14.14v4.89a.141.141,0,0,0,.14.141h.879a.146.146,0,0,0,.141-.141v-1.884h.51l.168.335.814,1.622a.136.136,0,0,0,.119.067h.982a.14.14,0,0,0,.125-.215l-.795-1.474-.217-.4a1.565,1.565,0,0,0,1.083-1.354c0-.044.01-.086.01-.13A1.574,1.574,0,0,0,224.012,336.72Zm.455,1.726a.56.56,0,0,1-.551.483h-1.093v-1.153h1.093a.543.543,0,0,1,.561.562A.62.62,0,0,1,224.467,338.446Z" transform="translate(-23.714 -39.833)"/><path class="a" d="M235.222,336.72h-3.058a.14.14,0,0,0-.141.14v4.89a.141.141,0,0,0,.141.141h3.058a.141.141,0,0,0,.14-.141v-.805a.14.14,0,0,0-.14-.141h-2.046v-1h1.684a.14.14,0,0,0,.141-.14v-.805a.145.145,0,0,0-.141-.141h-1.684v-.916h2.046a.14.14,0,0,0,.14-.14v-.806A.14.14,0,0,0,235.222,336.72Z" transform="translate(-26.969 -39.833)"/><path class="a" d="M243.4,336.72h-1.78a.14.14,0,0,0-.14.14v4.89a.141.141,0,0,0,.14.141h.872a.146.146,0,0,0,.141-.141v-1.736h.776a1.614,1.614,0,0,0,1.643-1.568c0-.032,0-.062,0-.094A1.611,1.611,0,0,0,243.4,336.72Zm.509,1.726a.531.531,0,0,1-.531.49h-.746v-1.13h.746a.526.526,0,0,1,.539.547A.7.7,0,0,1,243.908,338.446Z" transform="translate(-29.94 -39.833)"/><path class="a" d="M254.209,336.72h-3.058a.14.14,0,0,0-.141.14v4.89a.141.141,0,0,0,.141.141h3.058a.141.141,0,0,0,.14-.141v-.805a.14.14,0,0,0-.14-.141h-2.046v-1h1.684a.141.141,0,0,0,.141-.14v-.805a.146.146,0,0,0-.141-.141h-1.684v-.916h2.046a.14.14,0,0,0,.14-.14v-.806A.14.14,0,0,0,254.209,336.72Z" transform="translate(-32.935 -39.833)"/><path class="a" d="M262.065,338.717a3.748,3.748,0,0,1-.54-.305c-.171-.124-.265-.245-.265-.382a.4.4,0,0,1,.451-.406,2.01,2.01,0,0,1,1,.4.229.229,0,0,0,.325-.052l.377-.569a.187.187,0,0,0-.044-.237,2.749,2.749,0,0,0-1.581-.554,1.532,1.532,0,0,0-1.706,1.47,1.437,1.437,0,0,0,.037.33c.155.662.775,1,1.4,1.3a1.792,1.792,0,0,1,.66.453.481.481,0,0,1,.1.293.463.463,0,0,1-.51.443,1.9,1.9,0,0,1-1.049-.406.173.173,0,0,0-.251.044l-.34.6a.166.166,0,0,0,.029.221,2.347,2.347,0,0,0,1.662.569,1.623,1.623,0,0,0,1.743-1.529,1.59,1.59,0,0,0-.018-.234C263.418,339.339,262.661,339.009,262.065,338.717Z" transform="translate(-35.784 -39.8)"/><path class="a" d="M297.664,336.686H296.8a.152.152,0,0,0-.133.1l-.411,1.623-.224.881H296l-.388-.881-.757-1.719a.125.125,0,0,0-.126-.082H294.6a.141.141,0,0,0-.126.082l-.756,1.719-.388.881H293.3l-.224-.881-.411-1.623a.152.152,0,0,0-.133-.1h-.865a.129.129,0,0,0-.133.178l.436,1.549.494,1.756.466,1.66a.143.143,0,0,0,.133.1h.119a.151.151,0,0,0,.126-.081l.747-1.682.6-1.339h.022l.6,1.339.752,1.682a.15.15,0,0,0,.125.081h.119a.141.141,0,0,0,.132-.1l.467-1.66.494-1.756.435-1.549A.129.129,0,0,0,297.664,336.686Z" transform="translate(-45.665 -39.8)"/><path class="a" d="M307.071,338.412l-.8-1.719a.15.15,0,0,0-.125-.082h-.074a.15.15,0,0,0-.126.082l-.8,1.719-.816,1.756-.7,1.5a.131.131,0,0,0,.126.193h.813a.275.275,0,0,0,.265-.178l.266-.591h2.009l.266.584c.067.141.126.185.259.185h.82a.131.131,0,0,0,.125-.193l-.7-1.5Zm-1.523,1.672.554-1.219h.008l.562,1.219Z" transform="translate(-49.465 -39.8)"/><path class="a" d="M318.138,336.72H315.08a.141.141,0,0,0-.141.14v4.89a.141.141,0,0,0,.141.141h.872a.146.146,0,0,0,.141-.141v-1.795h1.684a.145.145,0,0,0,.141-.141v-.805a.145.145,0,0,0-.141-.141h-1.684v-1.064h2.046a.14.14,0,0,0,.141-.14v-.806A.14.14,0,0,0,318.138,336.72Z" transform="translate(-53.021 -39.833)"/><path class="a" d="M327.357,336.72H324.3a.141.141,0,0,0-.141.14v4.89a.141.141,0,0,0,.141.141h.872a.146.146,0,0,0,.141-.141v-1.795h1.684a.145.145,0,0,0,.141-.141v-.805a.145.145,0,0,0-.141-.141h-1.684v-1.064h2.046a.14.14,0,0,0,.141-.14v-.806A.14.14,0,0,0,327.357,336.72Z" transform="translate(-55.918 -39.833)"/><path class="a" d="M336.3,340.8h-1.758V336.86a.145.145,0,0,0-.14-.14h-.879a.14.14,0,0,0-.141.14v4.89a.141.141,0,0,0,.141.141H336.3a.141.141,0,0,0,.14-.141v-.805A.14.14,0,0,0,336.3,340.8Z" transform="translate(-58.814 -39.833)"/><path class="a" d="M345.3,336.72h-3.058a.14.14,0,0,0-.14.14v4.89a.141.141,0,0,0,.14.141H345.3a.141.141,0,0,0,.141-.141v-.805a.14.14,0,0,0-.141-.141h-2.046v-1h1.684a.14.14,0,0,0,.14-.14v-.805a.145.145,0,0,0-.14-.141h-1.684v-.916H345.3a.14.14,0,0,0,.141-.14v-.806A.14.14,0,0,0,345.3,336.72Z" transform="translate(-61.555 -39.833)"/><path class="a" d="M353.156,338.717a3.785,3.785,0,0,1-.54-.305c-.171-.124-.265-.245-.265-.382a.4.4,0,0,1,.451-.406,2.01,2.01,0,0,1,1,.4.229.229,0,0,0,.325-.052l.376-.569a.187.187,0,0,0-.045-.237,2.742,2.742,0,0,0-1.58-.554,1.532,1.532,0,0,0-1.706,1.47,1.436,1.436,0,0,0,.038.33c.154.662.774,1,1.395,1.3a1.793,1.793,0,0,1,.66.453.481.481,0,0,1,.1.293.463.463,0,0,1-.51.443,1.9,1.9,0,0,1-1.049-.406.173.173,0,0,0-.251.044l-.34.6a.166.166,0,0,0,.03.221,2.347,2.347,0,0,0,1.662.569,1.623,1.623,0,0,0,1.743-1.529,1.59,1.59,0,0,0-.018-.234C354.509,339.339,353.752,339.009,353.156,338.717Z" transform="translate(-64.405 -39.8)"/></g></svg>